$ Generated by COMSOL 6.3.0.290
$ Dec 12 2025, 21:07
BEGIN BULK
$ Grid data section
GRID           1         80.0000 27.5000 0.00000
GRID           2         78.4516 25.2815 0.00000
GRID           3         77.3979 27.2875 0.00000
GRID           4         76.6110 25.4066 0.00000
GRID           5         76.9958 23.0013 0.00000
GRID           6         74.8520 26.7050 0.00000
GRID           7         74.9491 25.7936 0.00000
GRID           8         75.4777 23.5182 0.00000
GRID           9         75.6432 20.6584 0.00000
GRID          10         72.3870 25.8396 0.00000
GRID          11         73.6380 24.6430 0.00000
GRID          12         73.7350 21.8748 0.00000
GRID          13         74.4055 18.2529 0.00000
GRID          14         70.0041 24.7677 0.00000
GRID          15         78.4516-25.2815 0.00000
GRID          16         71.8466 23.2317 0.00000
GRID          17         72.2043 19.8736 0.00000
GRID          18         73.2952 15.7860 0.00000
GRID          19         67.6924 23.5492 0.00000
GRID          20         80.0000-27.5000 0.00000
GRID          21         76.9958-23.0013 0.00000
GRID          22         76.6272-25.3902 0.00000
GRID          23         69.9562 21.6339 0.00000
GRID          24         70.7029 17.7211 0.00000
GRID          25         72.3252 13.2607 0.00000
GRID          26         65.4365 22.2298 0.00000
GRID          27         77.3979-27.2875 0.00000
GRID          28         75.6432-20.6584 0.00000
GRID          29         75.5081-23.4681 0.00000
GRID          30         74.9986-25.5940 0.00000
GRID          31         68.0629 19.8623 0.00000
GRID          32         69.2492 15.3355 0.00000
GRID          33         71.5088 10.6818 0.00000
GRID          34         63.2202 20.8450 0.00000
GRID          35         74.8520-26.7050 0.00000
GRID          36         74.4055-18.2529 0.00000
GRID          37         73.7502-21.7941 0.00000
GRID          38         73.8277-24.3668 0.00000
GRID          39         72.3252-13.2607 0.00000
GRID          40         70.8582 8.05610 0.00000
GRID          41         66.1180 17.8134 0.00000
GRID          42         67.9903 12.5555 0.00000
GRID          43         61.0271 19.4234 0.00000
GRID          44         72.3870-25.8396 0.00000
GRID          45         73.2952-15.7860 0.00000
GRID          46         72.2615-19.6593 0.00000
GRID          47         71.8576-23.1448 0.00000
GRID          48         70.1053-14.8621 0.00000
GRID          49         71.5088-10.6818 0.00000
GRID          50         67.2299 9.39027 0.00000
GRID          51         70.3846 5.39287 0.00000
GRID          52         63.7112 14.9855 0.00000
GRID          53         58.8414 17.9905 0.00000
GRID          54         70.0041-24.7677 0.00000
GRID          55         70.9971-17.2836 0.00000
GRID          56         69.9747-21.3620 0.00000
GRID          57         68.0468-15.9046 0.00000
GRID          58         69.0409-12.5770 0.00000
GRID          59         70.8582-8.05610 0.00000
GRID          60         70.0966 2.70325 0.00000
GRID          61         63.4466 10.5780 0.00000
GRID          62         66.7499 6.21411 0.00000
GRID          63         59.9619 14.5718 0.00000
GRID          64         58.0067 11.9005 0.00000
GRID          65         56.6474 16.5705 0.00000
GRID          66         67.6924-23.5492 0.00000
GRID          67         67.6285-18.8726 0.00000
GRID          68         66.4144-14.6841 0.00000
GRID          69         67.7688-10.0887 0.00000
GRID          70         70.3846-5.39287 0.00000
GRID          71         63.8643-9.67236 0.00000
GRID          72         70.0000 0.00000 0.00000
GRID          73         66.4414 3.09390 0.00000
GRID          74         60.0526 11.3232 0.00000
GRID          75         62.9360 6.98869 0.00000
GRID          76         57.4820 13.9261 0.00000
GRID          77         56.5048 10.5930 0.00000
GRID          78         54.4292 15.1887 0.00000
GRID          79         65.4365-22.2298 0.00000
GRID          80         65.0873-17.6612 0.00000
GRID          81         64.8776-12.4685 0.00000
GRID          82         70.0966-2.70325 0.00000
GRID          83         65.8704-7.15084 0.00000
GRID          84         61.9143-9.31748 0.00000
GRID          85         66.2500 0.00000 0.00000
GRID          86         62.6506 3.45626 0.00000
GRID          87         58.6542 7.84280 0.00000
GRID          88         55.3455 12.8644 0.00000
GRID          89         54.1469 9.33349 0.00000
GRID          90         52.1704 13.8743 0.00000
GRID          91         63.2202-20.8450 0.00000
GRID          92         62.6702-16.2435 0.00000
GRID          93         61.3260-12.1774 0.00000
GRID          94         66.2255-3.23995 0.00000
GRID          95         62.2142-6.75702 0.00000
GRID          96         59.8552-9.48554 0.00000
GRID          97         62.5000 0.00000 0.00000
GRID          98         58.7950 3.65556 0.00000
GRID          99         54.9732 6.76456 0.00000
GRID         100         53.1092 11.6504 0.00000
GRID         101         51.7336 8.22928 0.00000
GRID         102         49.8548 12.6633 0.00000
GRID         103         61.0271-19.4234 0.00000
GRID         104         60.2020-15.0606 0.00000
GRID         105         58.9564-11.3720 0.00000
GRID         106         62.4031-3.43266 0.00000
GRID         107         58.4843-7.31614 0.00000
GRID         108         58.7500 0.00000 0.00000
GRID         109         55.0483 3.61276 0.00000
GRID         110         52.5041 6.67953 0.00000
GRID         111         50.7432 10.4835 0.00000
GRID         112         49.2483 7.00037 0.00000
GRID         113         47.4672 11.6019 0.00000
GRID         114         58.8414-17.9905 0.00000
GRID         115         57.8356-13.9216 0.00000
GRID         116         56.7122-10.1860 0.00000
GRID         117         58.6674-3.50107 0.00000
GRID         118         54.9525-6.52703 0.00000
GRID         119         55.0000 0.00000 0.00000
GRID         120         51.0564 4.08911 0.00000
GRID         121         48.2506 9.41350 0.00000
GRID         122         46.2867 6.05085 0.00000
GRID         123         44.9972 10.7511 0.00000
GRID         124         56.6474-16.5705 0.00000
GRID         125         55.5308-12.7168 0.00000
GRID         126         54.2121-9.12007 0.00000
GRID         127         55.0098-3.48146 0.00000
GRID         128         52.5438-6.48208 0.00000
GRID         129         51.2500 0.00000 0.00000
GRID         130         47.0207 3.19979 0.00000
GRID         131         45.5822 8.54149 0.00000
GRID         132         43.1426 5.43885 0.00000
GRID         133         42.4483 10.1887 0.00000
GRID         134         54.4292-15.1887 0.00000
GRID         135         53.1765-11.5337 0.00000
GRID         136         51.7555-8.10715 0.00000
GRID         137         51.0525-4.01421 0.00000
GRID         138         47.5000 0.00000 0.00000
GRID         139         43.4705 2.77941 0.00000
GRID         140         42.8002 7.92556 0.00000
GRID         141         40.0000 5.00000 0.00000
GRID         142         40.0000 10.0000 0.00000
GRID         143         52.1704-13.8743 0.00000
GRID         144         50.7679-10.4119 0.00000
GRID         145         49.2564-6.93316 0.00000
GRID         146         47.0218-3.17263 0.00000
GRID         147         43.7500 0.00000 0.00000
GRID         148         40.0000 2.50000 0.00000
GRID         149         40.0000 7.50000 0.00000
GRID         150         38.5704 4.59060 0.00000
GRID         151         36.6667 10.0000 0.00000
GRID         152         49.8548-12.6633 0.00000
GRID         153         48.2603-9.37297 0.00000
GRID         154         46.2918-6.01732 0.00000
GRID         155         43.4714-2.76966 0.00000
GRID         156         40.0000 0.00000 0.00000
GRID         157         38.0506 2.57678 0.00000
GRID         158         36.8380 6.27032 0.00000
GRID         159         33.3333 10.0000 0.00000
GRID         160         47.4672-11.6019 0.00000
GRID         161         45.5862-8.52086 0.00000
GRID         162         43.1444-5.42578 0.00000
GRID         163         40.0000-2.50000 0.00000
GRID         164         37.9315-0.00540 0.00000
GRID         165         35.8159 2.95245 0.00000
GRID         166         33.2604 6.54518 0.00000
GRID         167         30.0000 10.0000 0.00000
GRID         168         44.9972-10.7511 0.00000
GRID         169         42.8016-7.91715 0.00000
GRID         170         40.0000-5.00000 0.00000
GRID         171         38.0503-2.58121 0.00000
GRID         172         35.6085-0.00636 0.00000
GRID         173         33.0267 3.21329 0.00000
GRID         174         30.0000 6.66667 0.00000
GRID         175         26.6667 10.0000 0.00000
GRID         176         42.4483-10.1887 0.00000
GRID         177         40.0000-7.50000 0.00000
GRID         178         38.5703-4.59270 0.00000
GRID         179         35.8151-2.95823 0.00000
GRID         180         32.9174-0.00373 0.00000
GRID         181         30.0000 3.33333 0.00000
GRID         182         26.6667 6.66667 0.00000
GRID         183         23.3333 10.0000 0.00000
GRID         184         40.0000-10.0000 0.00000
GRID         185         36.8370-6.27234 0.00000
GRID         186         33.0255-3.21721 0.00000
GRID         187         30.00008.32E-16 0.00000
GRID         188         26.6667 3.33333 0.00000
GRID         189         23.3333 6.66667 0.00000
GRID         190         20.0000 10.0000 0.00000
GRID         191         36.6667-10.0000 0.00000
GRID         192         33.2554-6.54796 0.00000
GRID         193         30.0000-3.33333 0.00000
GRID         194         26.6667-8.8E-15 0.00000
GRID         195         23.3333 3.33333 0.00000
GRID         196         20.0000 6.66667 0.00000
GRID         197         16.6667 10.0000 0.00000
GRID         198         33.3333-10.0000 0.00000
GRID         199         30.0000-6.66667 0.00000
GRID         200         26.6667-3.33333 0.00000
GRID         201         23.3333-8.8E-15 0.00000
GRID         202         20.0000 3.33333 0.00000
GRID         203         16.6667 6.66667 0.00000
GRID         204         13.3333 10.0000 0.00000
GRID         205         30.0000-10.0000 0.00000
GRID         206         26.6667-6.66667 0.00000
GRID         207         23.3333-3.33333 0.00000
GRID         208         20.0000-8.3E-16 0.00000
GRID         209         16.6667 3.33333 0.00000
GRID         210         13.3333 6.66667 0.00000
GRID         211         10.0000 10.0000 0.00000
GRID         212         26.6667-10.0000 0.00000
GRID         213         23.3333-6.66667 0.00000
GRID         214         20.0000-3.33333 0.00000
GRID         215         16.6667 0.00000 0.00000
GRID         216         13.3333 3.33333 0.00000
GRID         217         10.0000 6.66667 0.00000
GRID         218         6.66667 10.0000 0.00000
GRID         219         23.3333-10.0000 0.00000
GRID         220         20.0000-6.66667 0.00000
GRID         221         16.6667-3.33333 0.00000
GRID         222         13.3333 0.00000 0.00000
GRID         223         10.0000 3.33333 0.00000
GRID         224         6.66667 6.66667 0.00000
GRID         225         3.33333 10.0000 0.00000
GRID         226         20.0000-10.0000 0.00000
GRID         227         16.6667-6.66667 0.00000
GRID         228         13.3333-3.33333 0.00000
GRID         229         10.00008.32E-16 0.00000
GRID         230         6.66667 3.33333 0.00000
GRID         231         3.33333 6.66667 0.00000
GRID         232         0.00000 10.0000 0.00000
GRID         233         16.6667-10.0000 0.00000
GRID         234         13.3333-6.66667 0.00000
GRID         235         10.0000-3.33333 0.00000
GRID         236         6.66667-8.8E-15 0.00000
GRID         237         3.33333 3.33333 0.00000
GRID         238         0.00000 6.66667 0.00000
GRID         239         13.3333-10.0000 0.00000
GRID         240         10.0000-6.66667 0.00000
GRID         241         6.66667-3.33333 0.00000
GRID         242         3.33333-8.8E-15 0.00000
GRID         243         0.00000 3.33333 0.00000
GRID         244         10.0000-10.0000 0.00000
GRID         245         6.66667-6.66667 0.00000
GRID         246         3.33333-3.33333 0.00000
GRID         247         0.00000-8.3E-16 0.00000
GRID         248         6.66667-10.0000 0.00000
GRID         249         3.33333-6.66667 0.00000
GRID         250         0.00000-3.33333 0.00000
GRID         251         3.33333-10.0000 0.00000
GRID         252         0.00000-6.66667 0.00000
GRID         253         0.00000-10.0000 0.00000
GRID         254         78.6948-27.4453 0.00000
GRID         255         76.1157-27.0370 0.00000
GRID         256         73.6089-26.3025 0.00000
GRID         257         71.1858-25.3253 0.00000
GRID         258         68.8403-24.1736 0.00000
GRID         259         66.5585-22.8997 0.00000
GRID         260         64.3244-21.5437 0.00000
GRID         261         62.1217-20.1372 0.00000
GRID         262         59.9343-18.7069 0.00000
GRID         263         57.7465-17.2774 0.00000
GRID         264         55.5423-15.8731 0.00000
GRID         265         53.3059-14.5210 0.00000
GRID         266         51.0207-13.2533 0.00000
GRID         267         48.6708-12.1104 0.00000
GRID         268         46.2428-11.1457 0.00000
GRID         269         43.7318-10.4285 0.00000
GRID         270         41.2277-10.0484 0.00000
GRID         271         78.6948 27.4453 0.00000
GRID         272         76.1157 27.0370 0.00000
GRID         273         73.6089 26.3025 0.00000
GRID         274         71.1858 25.3253 0.00000
GRID         275         68.8403 24.1736 0.00000
GRID         276         66.5585 22.8997 0.00000
GRID         277         64.3244 21.5437 0.00000
GRID         278         62.1217 20.1372 0.00000
GRID         279         59.9343 18.7069 0.00000
GRID         280         57.7465 17.2774 0.00000
GRID         281         55.5423 15.8731 0.00000
GRID         282         53.3059 14.5210 0.00000
GRID         283         51.0207 13.2533 0.00000
GRID         284         48.6708 12.1104 0.00000
GRID         285         46.2428 11.1457 0.00000
GRID         286         43.7318 10.4285 0.00000
GRID         287         41.2277 10.0484 0.00000
GRID         288         79.2149-26.3984 0.00000
GRID         289         77.7115-24.1492 0.00000
GRID         290         76.3059-21.8377 0.00000
GRID         291         75.0093-19.4634 0.00000
GRID         292         73.8336-17.0270 0.00000
GRID         293         72.7918-14.5304 0.00000
GRID         294         71.8970-11.9776 0.00000
GRID         295         71.1620-9.37426 0.00000
GRID         296         70.5987-6.72853 0.00000
GRID         297         70.2170-4.05059 0.00000
GRID         298         70.0242-1.35249 0.00000
GRID         299         79.2149 26.3984 0.00000
GRID         300         77.7115 24.1492 0.00000
GRID         301         76.3059 21.8377 0.00000
GRID         302         75.0093 19.4634 0.00000
GRID         303         73.8336 17.0270 0.00000
GRID         304         72.7918 14.5304 0.00000
GRID         305         71.8970 11.9776 0.00000
GRID         306         71.1620 9.37426 0.00000
GRID         307         70.5987 6.72853 0.00000
GRID         308         70.2170 4.05059 0.00000
GRID         309         70.0242 1.35249 0.00000
GRID         310         0.00000 8.33333 0.00000
GRID         311         0.00000 5.00000 0.00000
GRID         312         0.00000 1.66667 0.00000
GRID         313         0.00000-1.66667 0.00000
GRID         314         0.00000-5.00000 0.00000
GRID         315         0.00000-8.33333 0.00000
GRID         316         8.33333-10.0000 0.00000
GRID         317         5.00000-10.0000 0.00000
GRID         318         1.66667-10.0000 0.00000
GRID         319         8.33333 10.0000 0.00000
GRID         320         5.00000 10.0000 0.00000
GRID         321         1.66667 10.0000 0.00000
GRID         322         10.0000 8.33333 0.00000
GRID         323         10.0000 5.00000 0.00000
GRID         324         10.0000 1.66667 0.00000
GRID         325         10.0000-1.66667 0.00000
GRID         326         10.0000-5.00000 0.00000
GRID         327         10.0000-8.33333 0.00000
GRID         328         18.3333-10.0000 0.00000
GRID         329         15.0000-10.0000 0.00000
GRID         330         11.6667-10.0000 0.00000
GRID         331         18.3333 10.0000 0.00000
GRID         332         15.0000 10.0000 0.00000
GRID         333         11.6667 10.0000 0.00000
GRID         334         20.0000 8.33333 0.00000
GRID         335         20.0000 5.00000 0.00000
GRID         336         20.0000 1.66667 0.00000
GRID         337         20.0000-1.66667 0.00000
GRID         338         20.0000-5.00000 0.00000
GRID         339         20.0000-8.33333 0.00000
GRID         340         28.3333-10.0000 0.00000
GRID         341         25.0000-10.0000 0.00000
GRID         342         21.6667-10.0000 0.00000
GRID         343         28.3333 10.0000 0.00000
GRID         344         25.0000 10.0000 0.00000
GRID         345         21.6667 10.0000 0.00000
GRID         346         30.0000 8.33333 0.00000
GRID         347         30.0000 5.00000 0.00000
GRID         348         30.0000 1.66667 0.00000
GRID         349         30.0000-1.66667 0.00000
GRID         350         30.0000-5.00000 0.00000
GRID         351         30.0000-8.33333 0.00000
GRID         352         38.3333-10.0000 0.00000
GRID         353         35.0000-10.0000 0.00000
GRID         354         31.6667-10.0000 0.00000
GRID         355         38.3333 10.0000 0.00000
GRID         356         35.0000 10.0000 0.00000
GRID         357         31.6667 10.0000 0.00000
GRID         358         40.0000-1.25000 0.00000
GRID         359         40.0000-3.75000 0.00000
GRID         360         40.0000-6.25000 0.00000
GRID         361         40.0000-8.75000 0.00000
GRID         362         40.0000 3.75000 0.00000
GRID         363         40.0000 6.25000 0.00000
GRID         364         40.0000 8.75000 0.00000
GRID         365         40.0000 1.25000 0.00000
GRID         366         68.1250 0.00000 0.00000
GRID         367         64.3750 0.00000 0.00000
GRID         368         60.6250 0.00000 0.00000
GRID         369         56.8750 0.00000 0.00000
GRID         370         53.1250 0.00000 0.00000
GRID         371         49.3750 0.00000 0.00000
GRID         372         45.6250 0.00000 0.00000
GRID         373         41.8750 0.00000 0.00000
GRID         374         77.5394-25.3359 0.00000
GRID         375         77.0126-26.3388 0.00000
GRID         376         76.0676-24.4292 0.00000
GRID         377         76.2519-23.2347 0.00000
GRID         378         75.8129-25.4921 0.00000
GRID         379         74.9253-26.1495 0.00000
GRID         380         74.6291-22.6311 0.00000
GRID         381         74.6967-21.2263 0.00000
GRID         382         74.4132-24.9804 0.00000
GRID         383         73.1074-25.1032 0.00000
GRID         384         73.0058-20.7267 0.00000
GRID         385         73.3335-18.9561 0.00000
GRID         386         72.8427-23.7558 0.00000
GRID         387         70.9309-23.9562 0.00000
GRID         388         70.5512-16.0728 0.00000
GRID         389         71.2153-14.0614 0.00000
GRID         390         72.1461-16.5348 0.00000
GRID         391         71.6293-18.4714 0.00000
GRID         392         70.2749-11.6294 0.00000
GRID         393         69.5731-13.7196 0.00000
GRID         394         70.9162-22.2534 0.00000
GRID         395         68.8336-22.4556 0.00000
GRID         396         69.3135-9.07241 0.00000
GRID         397         68.4049-11.3329 0.00000
GRID         398         68.8016-20.1173 0.00000
GRID         399         66.5325-20.5512 0.00000
GRID         400         68.1275-6.27185 0.00000
GRID         401         66.8196-8.61977 0.00000
GRID         402         64.1537-19.2531 0.00000
GRID         403         66.3579-18.2669 0.00000
GRID         404         68.1610-2.97160 0.00000
GRID         405         66.2377-1.61998 0.00000
GRID         406         66.0479-5.19540 0.00000
GRID         407         61.8486-17.8335 0.00000
GRID         408         63.8787-16.9523 0.00000
GRID         409         59.5217-16.5256 0.00000
GRID         410         61.4361-15.6520 0.00000
GRID         411         57.2415-15.2461 0.00000
GRID         412         59.0188-14.4911 0.00000
GRID         413         54.9800-13.9527 0.00000
GRID         414         56.6832-13.3192 0.00000
GRID         415         52.6735-12.7040 0.00000
GRID         416         54.3537-12.1252 0.00000
GRID         417         50.3114-11.5376 0.00000
GRID         418         51.9722-10.9728 0.00000
GRID         419         47.8637-10.4874 0.00000
GRID         420         49.5141-9.89243 0.00000
GRID         421         45.2917-9.63600 0.00000
GRID         422         46.9232-8.94691 0.00000
GRID         423         42.6249-9.05290 0.00000
GRID         424         44.1939-8.21900 0.00000
GRID         425         41.4008-7.70857 0.00000
GRID         426         77.5313 25.3441 0.00000
GRID         427         77.0045 26.3470 0.00000
GRID         428         75.7800 25.6001 0.00000
GRID         429         74.9005 26.2493 0.00000
GRID         430         76.0444 24.4624 0.00000
GRID         431         76.2368 23.2597 0.00000
GRID         432         74.2935 25.2183 0.00000
GRID         433         73.0125 25.2413 0.00000
GRID         434         74.6064 22.6965 0.00000
GRID         435         74.6891 21.2666 0.00000
GRID         436         70.9253 23.9997 0.00000
GRID         437         72.7423 23.9374 0.00000
GRID         438         72.9697 20.8742 0.00000
GRID         439         73.3049 19.0633 0.00000
GRID         440         68.8243 22.5916 0.00000
GRID         441         70.9014 22.4328 0.00000
GRID         442         71.4536 18.7974 0.00000
GRID         443         71.9991 16.7536 0.00000
GRID         444         66.7497 21.0461 0.00000
GRID         445         69.0095 20.7481 0.00000
GRID         446         69.9761 16.5283 0.00000
GRID         447         70.7872 14.2981 0.00000
GRID         448         64.6691 19.3292 0.00000
GRID         449         67.0904 18.8379 0.00000
GRID         450         68.6198 13.9455 0.00000
GRID         451         69.7495 11.6186 0.00000
GRID         452         67.6101 10.9729 0.00000
GRID         453         69.0440 8.72319 0.00000
GRID         454         62.3692 17.2045 0.00000
GRID         455         64.9146 16.3995 0.00000
GRID         456         66.9899 7.80219 0.00000
GRID         457         68.5672 5.80349 0.00000
GRID         458         59.4016 16.2812 0.00000
GRID         459         61.8366 14.7787 0.00000
GRID         460         66.5956 4.65400 0.00000
GRID         461         68.2690 2.89857 0.00000
GRID         462         57.0647 15.2483 0.00000
GRID         463         58.7219 14.2489 0.00000
GRID         464         66.3457 1.54695 0.00000
GRID         465         54.8873 14.0266 0.00000
GRID         466         56.4138 13.3953 0.00000
GRID         467         52.6398 12.7623 0.00000
GRID         468         54.2274 12.2574 0.00000
GRID         469         50.2990 11.5734 0.00000
GRID         470         51.9262 11.0669 0.00000
GRID         471         47.8589 10.5077 0.00000
GRID         472         49.4969 9.94850 0.00000
GRID         473         45.2897 9.64631 0.00000
GRID         474         46.9164 8.97749 0.00000
GRID         475         42.6242 9.05711 0.00000
GRID         476         44.1912 8.23352 0.00000
GRID         477         41.4001 7.71278 0.00000
GRID         478         8.33333 6.66667 0.00000
GRID         479         6.66667 8.33333 0.00000
GRID         480         8.33333 3.33333 0.00000
GRID         481         6.66667 5.00000 0.00000
GRID         482         5.00000 6.66667 0.00000
GRID         483         3.33333 8.33333 0.00000
GRID         484         8.33333-4.0E-15 0.00000
GRID         485         6.66667 1.66667 0.00000
GRID         486         5.00000 3.33333 0.00000
GRID         487         3.33333 5.00000 0.00000
GRID         488         1.66667 6.66667 0.00000
GRID         489         8.33333-3.33333 0.00000
GRID         490         6.66667-1.66667 0.00000
GRID         491         5.00000-8.8E-15 0.00000
GRID         492         3.33333 1.66667 0.00000
GRID         493         1.66667 3.33333 0.00000
GRID         494         8.33333-6.66667 0.00000
GRID         495         6.66667-5.00000 0.00000
GRID         496         5.00000-3.33333 0.00000
GRID         497         3.33333-1.66667 0.00000
GRID         498         1.66667-4.8E-15 0.00000
GRID         499         6.66667-8.33333 0.00000
GRID         500         5.00000-6.66667 0.00000
GRID         501         3.33333-5.00000 0.00000
GRID         502         1.66667-3.33333 0.00000
GRID         503         3.33333-8.33333 0.00000
GRID         504         1.66667-6.66667 0.00000
GRID         505         18.3333 6.66667 0.00000
GRID         506         16.6667 8.33333 0.00000
GRID         507         18.3333 3.33333 0.00000
GRID         508         16.6667 5.00000 0.00000
GRID         509         15.0000 6.66667 0.00000
GRID         510         13.3333 8.33333 0.00000
GRID         511         18.3333-4.1E-16 0.00000
GRID         512         16.6667 1.66667 0.00000
GRID         513         15.0000 3.33333 0.00000
GRID         514         13.3333 5.00000 0.00000
GRID         515         11.6667 6.66667 0.00000
GRID         516         18.3333-3.33333 0.00000
GRID         517         16.6667-1.66667 0.00000
GRID         518         15.0000 0.00000 0.00000
GRID         519         13.3333 1.66667 0.00000
GRID         520         11.6667 3.33333 0.00000
GRID         521         18.3333-6.66667 0.00000
GRID         522         16.6667-5.00000 0.00000
GRID         523         15.0000-3.33333 0.00000
GRID         524         13.3333-1.66667 0.00000
GRID         525         11.66674.16E-16 0.00000
GRID         526         16.6667-8.33333 0.00000
GRID         527         15.0000-6.66667 0.00000
GRID         528         13.3333-5.00000 0.00000
GRID         529         11.6667-3.33333 0.00000
GRID         530         13.3333-8.33333 0.00000
GRID         531         11.6667-6.66667 0.00000
GRID         532         28.3333 6.66667 0.00000
GRID         533         26.6667 8.33333 0.00000
GRID         534         28.3333 3.33333 0.00000
GRID         535         26.6667 5.00000 0.00000
GRID         536         25.0000 6.66667 0.00000
GRID         537         23.3333 8.33333 0.00000
GRID         538         28.3333-4.0E-15 0.00000
GRID         539         26.6667 1.66667 0.00000
GRID         540         25.0000 3.33333 0.00000
GRID         541         23.3333 5.00000 0.00000
GRID         542         21.6667 6.66667 0.00000
GRID         543         28.3333-3.33333 0.00000
GRID         544         26.6667-1.66667 0.00000
GRID         545         25.0000-8.8E-15 0.00000
GRID         546         23.3333 1.66667 0.00000
GRID         547         21.6667 3.33333 0.00000
GRID         548         28.3333-6.66667 0.00000
GRID         549         26.6667-5.00000 0.00000
GRID         550         25.0000-3.33333 0.00000
GRID         551         23.3333-1.66667 0.00000
GRID         552         21.6667-4.8E-15 0.00000
GRID         553         26.6667-8.33333 0.00000
GRID         554         25.0000-6.66667 0.00000
GRID         555         23.3333-5.00000 0.00000
GRID         556         21.6667-3.33333 0.00000
GRID         557         23.3333-8.33333 0.00000
GRID         558         21.6667-6.66667 0.00000
GRID         559         38.3105 3.58369 0.00000
GRID         560         39.2852 4.79530 0.00000
GRID         561         39.0253 2.53839 0.00000
GRID         562         37.7042 5.43046 0.00000
GRID         563         38.4190 6.88516 0.00000
GRID         564         36.7523 8.13516 0.00000
GRID         565         37.9910 1.28569 0.00000
GRID         566         38.9658-0.00270 0.00000
GRID         567         36.3269 4.61139 0.00000
GRID         568         36.9332 2.76462 0.00000
GRID         569         35.0492 6.40775 0.00000
GRID         570         33.2969 8.27259 0.00000
GRID         571         39.0251-2.54060 0.00000
GRID         572         37.9909-1.29330 0.00000
GRID         573         35.7122 1.47304 0.00000
GRID         574         36.7700-0.00588 0.00000
GRID         575         34.4213 3.08287 0.00000
GRID         576         33.1435 4.87924 0.00000
GRID         577         31.6302 6.60592 0.00000
GRID         578         39.2851-4.79635 0.00000
GRID         579         38.3103-3.58695 0.00000
GRID         580         36.9327-2.76972 0.00000
GRID         581         35.7118-1.48230 0.00000
GRID         582         34.2630-0.00505 0.00000
GRID         583         32.9720 1.60478 0.00000
GRID         584         31.5133 3.27331 0.00000
GRID         585         37.7036-5.43252 0.00000
GRID         586         38.4185-6.88617 0.00000
GRID         587         36.3260-4.61528 0.00000
GRID         588         32.9715-1.61047 0.00000
GRID         589         34.4203-3.08772 0.00000
GRID         590         31.4587-0.00186 0.00000
GRID         591         36.7518-8.13617 0.00000
GRID         592         33.1404-4.88259 0.00000
GRID         593         35.0462-6.41015 0.00000
GRID         594         31.5128-3.27527 0.00000
GRID         595         33.2943-8.27398 0.00000
GRID         596         31.6277-6.60732 0.00000
GRID         597         74.6679-23.9174 0.00000
GRID         598         72.8039-22.4695 0.00000
GRID         599         71.1181-20.5107 0.00000
GRID         600         69.3128-18.0781 0.00000
GRID         601         67.8376-17.3886 0.00000
GRID         602         69.0761-15.3833 0.00000
GRID         603         67.2306-15.2943 0.00000
GRID         604         67.7277-13.6306 0.00000
GRID         605         65.7508-16.1727 0.00000
GRID         606         66.3232-11.2786 0.00000
GRID         607         65.6460-13.5763 0.00000
GRID         608         64.3709-11.0705 0.00000
GRID         609         64.8673-8.41160 0.00000
GRID         610         63.7739-14.3560 0.00000
GRID         611         62.8893-9.49492 0.00000
GRID         612         61.6201-10.7474 0.00000
GRID         613         63.1018-12.3230 0.00000
GRID         614         64.0423-6.95393 0.00000
GRID         615         62.0643-8.03725 0.00000
GRID         616         60.7640-13.6190 0.00000
GRID         617         59.4058-10.4288 0.00000
GRID         618         60.8847-9.40151 0.00000
GRID         619         60.1412-11.7747 0.00000
GRID         620         64.3143-3.33631 0.00000
GRID         621         62.4516-1.71633 0.00000
GRID         622         62.3087-5.09484 0.00000
GRID         623         59.1697-8.40084 0.00000
GRID         624         60.3493-7.03658 0.00000
GRID         625         58.3960-12.6468 0.00000
GRID         626         57.5982-8.75106 0.00000
GRID         627         57.8343-10.7790 0.00000
GRID         628         60.5353-3.46686 0.00000
GRID         629         58.7087-1.75053 0.00000
GRID         630         58.5758-5.40860 0.00000
GRID         631         56.1215-11.4514 0.00000
GRID         632         55.4622-9.65302 0.00000
GRID         633         56.7184-6.92159 0.00000
GRID         634         54.5823-7.82355 0.00000
GRID         635         56.8386-3.49126 0.00000
GRID         636         55.0049-1.74073 0.00000
GRID         637         54.9811-5.00424 0.00000
GRID         638         53.6943-10.3269 0.00000
GRID         639         52.1496-7.29462 0.00000
GRID         640         53.7482-6.50456 0.00000
GRID         641         52.9838-8.61361 0.00000
GRID         642         53.0311-3.74783 0.00000
GRID         643         51.1513-2.00711 0.00000
GRID         644         51.7982-5.24815 0.00000
GRID         645         51.2617-9.25952 0.00000
GRID         646         50.1545-5.47368 0.00000
GRID         647         50.5059-7.52015 0.00000
GRID         648         47.2609-1.58632 0.00000
GRID         649         49.0372-3.59342 0.00000
GRID         650         48.7583-8.15306 0.00000
GRID         651         47.7741-6.47524 0.00000
GRID         652         46.6568-4.59498 0.00000
GRID         653         43.6107-1.38483 0.00000
GRID         654         45.2466-2.97114 0.00000
GRID         655         45.9390-7.26909 0.00000
GRID         656         44.7181-5.72155 0.00000
GRID         657         43.3079-4.09772 0.00000
GRID         658         41.7357-2.63483 0.00000
GRID         659         42.9730-6.67147 0.00000
GRID         660         41.5722-5.21289 0.00000
GRID         661         74.5579 24.0806 0.00000
GRID         662         72.7908 22.5532 0.00000
GRID         663         71.0802 20.7538 0.00000
GRID         664         69.3829 18.7917 0.00000
GRID         665         67.6836 16.5745 0.00000
GRID         666         65.8508 13.7705 0.00000
GRID         667         63.5789 12.7817 0.00000
GRID         668         65.3382 9.98411 0.00000
GRID         669         61.7496 10.9506 0.00000
GRID         670         60.0072 12.9475 0.00000
GRID         671         63.1913 8.78332 0.00000
GRID         672         64.8429 6.60140 0.00000
GRID         673         59.0296 11.6119 0.00000
GRID         674         57.7443 12.9133 0.00000
GRID         675         62.7933 5.22248 0.00000
GRID         676         64.5460 3.27508 0.00000
GRID         677         59.3534 9.58302 0.00000
GRID         678         60.7951 7.41575 0.00000
GRID         679         57.2557 11.2467 0.00000
GRID         680         57.5795 9.21789 0.00000
GRID         681         55.9252 11.7287 0.00000
GRID         682         62.5753 1.72813 0.00000
GRID         683         58.7246 5.74918 0.00000
GRID         684         60.7228 3.55591 0.00000
GRID         685         54.5601 8.04902 0.00000
GRID         686         55.3259 9.96323 0.00000
GRID         687         56.8137 7.30368 0.00000
GRID         688         53.6280 10.4919 0.00000
GRID         689         58.7725 1.82778 0.00000
GRID         690         55.0107 5.18866 0.00000
GRID         691         56.9216 3.63416 0.00000
GRID         692         53.7386 6.72204 0.00000
GRID         693         52.1189 7.45441 0.00000
GRID         694         52.9403 8.78139 0.00000
GRID         695         51.2384 9.35639 0.00000
GRID         696         55.0241 1.80638 0.00000
GRID         697         51.7803 5.38432 0.00000
GRID         698         53.0524 3.85094 0.00000
GRID         699         50.4910 7.61483 0.00000
GRID         700         50.1524 5.54474 0.00000
GRID         701         48.7494 8.20693 0.00000
GRID         702         51.1532 2.04456 0.00000
GRID         703         47.7675 6.52561 0.00000
GRID         704         46.6537 4.62532 0.00000
GRID         705         49.0386 3.64445 0.00000
GRID         706         45.9344 7.29617 0.00000
GRID         707         47.2604 1.59990 0.00000
GRID         708         43.3065 4.10913 0.00000
GRID         709         44.7147 5.74485 0.00000
GRID         710         45.2456 2.98960 0.00000
GRID         711         42.9714 6.68221 0.00000
GRID         712         43.6102 1.38970 0.00000
GRID         713         41.5713 5.21943 0.00000
GRID         714         41.7352 2.63970 0.00000
$ Element data section
CQUAD8         1       6       2       1       3       4     299     271+CONT
+CONT        427     426
CQUAD8         2       6       7       4       3       6     428     427+CONT
+CONT        272     429
CQUAD8         3       6       4       8       5       2     430     431+CONT
+CONT        300     426
CQUAD8         4       6       7       6      10      11     429     273+CONT
+CONT        433     432
CQUAD8         5       6       7      11       8       4     432     661+CONT
+CONT        430     428
CQUAD8         6       6       8      12       9       5     434     435+CONT
+CONT        301     431
CQUAD8         7       6      10      14      16      11     274     436+CONT
+CONT        437     433
CQUAD8         8       6      11      16      12       8     437     662+CONT
+CONT        434     661
CQUAD8         9       6       9      12      17      13     435     438+CONT
+CONT        439     302
CQUAD8        10       6      14      19      23      16     275     440+CONT
+CONT        441     436
CQUAD8        11       6      16      23      17      12     441     663+CONT
+CONT        438     662
CQUAD8        12       6      13      17      24      18     439     442+CONT
+CONT        443     303
CQUAD8        13       5      15      22      27      20     374     375+CONT
+CONT        254     288
CQUAD8        14       5      22      15      21      29     374     289+CONT
+CONT        377     376
CQUAD8        15       6      19      26      31      23     276     444+CONT
+CONT        445     440
CQUAD8        16       6      23      31      24      17     445     664+CONT
+CONT        442     663
CQUAD8        17       6      18      24      32      25     443     446+CONT
+CONT        447     304
CQUAD8        18       5      22      30      35      27     378     379+CONT
+CONT        255     375
CQUAD8        19       5      29      21      28      37     377     290+CONT
+CONT        381     380
CQUAD8        20       5      30      22      29      38     378     376+CONT
+CONT        597     382
CQUAD8        21       6      26      34      41      31     277     448+CONT
+CONT        449     444
CQUAD8        22       6      24      31      41      32     664     449+CONT
+CONT        665     446
CQUAD8        23       6      25      32      42      33     447     450+CONT
+CONT        451     305
CQUAD8        24       5      30      38      44      35     382     383+CONT
+CONT        256     379
CQUAD8        25       5      37      28      36      46     381     291+CONT
+CONT        385     384
CQUAD8        26       5      38      29      37      47     597     380+CONT
+CONT        598     386
CQUAD8        27       6      33      42      50      40     451     452+CONT
+CONT        453     306
CQUAD8        28       6      34      43      52      41     278     454+CONT
+CONT        455     448
CQUAD8        29       6      32      41      52      42     665     455+CONT
+CONT        666     450
CQUAD8        30       5      44      38      47      54     383     386+CONT
+CONT        387     257
CQUAD8        31       5      48      55      45      39     388     390+CONT
+CONT        293     389
CQUAD8        32       5      36      45      55      46     292     390+CONT
+CONT        391     385
CQUAD8        33       5      47      37      46      56     598     384+CONT
+CONT        599     394
CQUAD8        34       5      39      49      58      48     294     392+CONT
+CONT        393     389
CQUAD8        35       6      42      52      61      50     666     667+CONT
+CONT        668     452
CQUAD8        36       6      40      50      62      51     453     456+CONT
+CONT        457     307
CQUAD8        37       6      53      63      52      43     458     459+CONT
+CONT        454     279
CQUAD8        38       5      54      47      56      66     387     394+CONT
+CONT        395     258
CQUAD8        39       5      46      55      67      56     391     600+CONT
+CONT        398     599
CQUAD8        40       5      57      67      55      48     601     600+CONT
+CONT        388     602
CQUAD8        41       5      57      48      58      68     602     393+CONT
+CONT        604     603
CQUAD8        42       5      49      59      69      58     295     396+CONT
+CONT        397     392
CQUAD8        43       6      51      62      73      60     457     460+CONT
+CONT        461     308
CQUAD8        44       6      74      61      52      63     669     667+CONT
+CONT        459     670
CQUAD8        45       6      50      61      75      62     668     671+CONT
+CONT        672     456
CQUAD8        46       6      65      76      63      53     462     463+CONT
+CONT        458     280
CQUAD8        47       6      64      74      63      76     673     670+CONT
+CONT        463     674
CQUAD8        48       5      66      56      67      79     395     398+CONT
+CONT        399     259
CQUAD8        49       5      57      68      80      67     603     605+CONT
+CONT        403     601
CQUAD8        50       5      58      69      81      68     397     606+CONT
+CONT        607     604
CQUAD8        51       5      59      70      83      69     296     400+CONT
+CONT        401     396
CQUAD8        52       5      71      81      69      83     608     606+CONT
+CONT        401     609
CQUAD8        53       6      60      73      85      72     461     464+CONT
+CONT        366     309
CQUAD8        54       6      62      75      86      73     672     675+CONT
+CONT        676     460
CQUAD8        55       6      74      87      75      61     677     678+CONT
+CONT        671     669
CQUAD8        56       6      64      77      87      74     679     680+CONT
+CONT        677     673
CQUAD8        57       6      78      88      76      65     465     466+CONT
+CONT        462     281
CQUAD8        58       6      64      76      88      77     674     466+CONT
+CONT        681     679
CQUAD8        59       5      80      91      79      67     402     260+CONT
+CONT        399     403
CQUAD8        60       5      68      81      92      80     607     610+CONT
+CONT        408     605
CQUAD8        61       5      71      84      93      81     611     612+CONT
+CONT        613     608
CQUAD8        62       5      82      72      85      94     298     366+CONT
+CONT        405     404
CQUAD8        63       5      70      82      94      83     297     404+CONT
+CONT        406     400
CQUAD8        64       5      71      83      95      84     609     614+CONT
+CONT        615     611
CQUAD8        65       6      85      73      86      97     464     676+CONT
+CONT        682     367
CQUAD8        66       6      75      87      98      86     678     683+CONT
+CONT        684     675
CQUAD8        67       6      89      99      87      77     685     687+CONT
+CONT        680     686
CQUAD8        68       6      90     100      88      78     467     468+CONT
+CONT        465     282
CQUAD8        69       6     100      89      77      88     688     686+CONT
+CONT        681     468
CQUAD8        70       5     103      91      80      92     261     402+CONT
+CONT        408     407
CQUAD8        71       5      93     104      92      81     616     410+CONT
+CONT        610     613
CQUAD8        72       5      96     105      93      84     617     619+CONT
+CONT        612     618
CQUAD8        73       5      94      85      97     106     405     367+CONT
+CONT        621     620
CQUAD8        74       5     106      95      83      94     622     614+CONT
+CONT        406     620
CQUAD8        75       5      96      84      95     107     618     615+CONT
+CONT        624     623
CQUAD8        76       6      97      86      98     108     682     684+CONT
+CONT        689     368
CQUAD8        77       6      99     109      98      87     690     691+CONT
+CONT        683     687
CQUAD8        78       6     110      99      89     101     692     685+CONT
+CONT        694     693
CQUAD8        79       6     102     111     100      90     469     470+CONT
+CONT        467     283
CQUAD8        80       6     111     101      89     100     695     694+CONT
+CONT        688     470
CQUAD8        81       5     114     103      92     104     262     407+CONT
+CONT        410     409
CQUAD8        82       5     105     115     104      93     625     412+CONT
+CONT        616     619
CQUAD8        83       5      96     107     116     105     623     626+CONT
+CONT        627     617
CQUAD8        84       5     106      97     108     117     621     368+CONT
+CONT        629     628
CQUAD8        85       5      95     106     117     107     622     628+CONT
+CONT        630     624
CQUAD8        86       6     109     119     108      98     696     369+CONT
+CONT        689     691
CQUAD8        87       6     110     120     109      99     697     698+CONT
+CONT        690     692
CQUAD8        88       6     110     101     112     120     693     699+CONT
+CONT        700     697
CQUAD8        89       6     113     121     111     102     471     472+CONT
+CONT        469     284
CQUAD8        90       6     101     111     121     112     695     472+CONT
+CONT        701     699
CQUAD8        91       5     124     114     104     115     263     409+CONT
+CONT        412     411
CQUAD8        92       5     105     116     125     115     627     631+CONT
+CONT        414     625
CQUAD8        93       5     116     107     118     126     626     633+CONT
+CONT        634     632
CQUAD8        94       5     117     108     119     127     629     369+CONT
+CONT        636     635
CQUAD8        95       5     118     107     117     127     633     630+CONT
+CONT        635     637
CQUAD8        96       6     109     120     129     119     698     702+CONT
+CONT        370     696
CQUAD8        97       6     112     122     130     120     703     704+CONT
+CONT        705     700
CQUAD8        98       6     123     131     121     113     473     474+CONT
+CONT        471     285
CQUAD8        99       6     121     131     122     112     474     706+CONT
+CONT        703     701
CQUAD8       100       5     134     124     115     125     264     411+CONT
+CONT        414     413
CQUAD8       101       5     135     125     116     126     416     631+CONT
+CONT        632     638
CQUAD8       102       5     128     136     126     118     639     641+CONT
+CONT        634     640
CQUAD8       103       5     127     119     129     137     636     370+CONT
+CONT        643     642
CQUAD8       104       5     128     118     127     137     640     637+CONT
+CONT        642     644
CQUAD8       105       6     138     129     120     130     371     702+CONT
+CONT        705     707
CQUAD8       106       6     132     139     130     122     708     710+CONT
+CONT        704     709
CQUAD8       107       6     133     140     131     123     475     476+CONT
+CONT        473     286
CQUAD8       108       6     140     132     122     131     711     709+CONT
+CONT        706     476
CQUAD8       109       5     143     134     125     135     265     413+CONT
+CONT        416     415
CQUAD8       110       5     144     135     126     136     418     638+CONT
+CONT        641     645
CQUAD8       111       5     128     137     145     136     644     646+CONT
+CONT        647     639
CQUAD8       112       5     138     146     137     129     648     649+CONT
+CONT        643     371
CQUAD8       113       6     147     138     130     139     372     707+CONT
+CONT        710     712
CQUAD8       114       6     141     148     139     132     362     714+CONT
+CONT        708     713
CQUAD8       115       6     133     142     149     140     287     364+CONT
+CONT        477     475
CQUAD8       116       6     149     141     132     140     363     713+CONT
+CONT        711     477
CQUAD8       117       5     152     143     135     144     266     415+CONT
+CONT        418     417
CQUAD8       118       5     136     145     153     144     647     650+CONT
+CONT        420     645
CQUAD8       119       5     145     137     146     154     646     649+CONT
+CONT        652     651
CQUAD8       120       5     147     155     146     138     653     654+CONT
+CONT        648     372
CQUAD8       121       6     148     156     147     139     365     373+CONT
+CONT        712     714
CQUAD8       122       4     150     157     148     141     559     561+CONT
+CONT        362     560
CQUAD8       123       4     150     141     149     158     560     363+CONT
+CONT        563     562
CQUAD8       124       4     149     142     151     158     364     355+CONT
+CONT        564     563
CQUAD8       125       5     160     152     144     153     267     417+CONT
+CONT        420     419
CQUAD8       126       5     153     145     154     161     650     651+CONT
+CONT        655     422
CQUAD8       127       5     154     146     155     162     652     654+CONT
+CONT        657     656
CQUAD8       128       5     163     155     147     156     658     653+CONT
+CONT        373     358
CQUAD8       129       4     148     157     164     156     561     565+CONT
+CONT        566     365
CQUAD8       130       4     150     158     165     157     562     567+CONT
+CONT        568     559
CQUAD8       131       4     166     158     151     159     569     564+CONT
+CONT        356     570
CQUAD8       132       5     168     160     153     161     268     419+CONT
+CONT        422     421
CQUAD8       133       5     169     161     154     162     424     655+CONT
+CONT        656     659
CQUAD8       134       5     170     162     155     163     660     657+CONT
+CONT        658     359
CQUAD8       135       4     163     156     164     171     358     566+CONT
+CONT        572     571
CQUAD8       136       4     157     165     172     164     568     573+CONT
+CONT        574     565
CQUAD8       137       4     165     158     166     173     567     569+CONT
+CONT        576     575
CQUAD8       138       4     174     166     159     167     577     570+CONT
+CONT        357     346
CQUAD8       139       5     176     168     161     169     269     421+CONT
+CONT        424     423
CQUAD8       140       5     177     169     162     170     425     659+CONT
+CONT        660     360
CQUAD8       141       4     178     170     163     171     578     359+CONT
+CONT        571     579
CQUAD8       142       4     171     164     172     179     572     574+CONT
+CONT        581     580
CQUAD8       143       4     172     165     173     180     573     575+CONT
+CONT        583     582
CQUAD8       144       4     181     173     166     174     584     576+CONT
+CONT        577     347
CQUAD8       145       3     182     174     167     175     532     346+CONT
+CONT        343     533
CQUAD8       146       5     176     169     177     184     423     425+CONT
+CONT        361     270
CQUAD8       147       4     178     185     177     170     585     586+CONT
+CONT        360     578
CQUAD8       148       4     178     171     179     185     579     580+CONT
+CONT        587     585
CQUAD8       149       4     172     180     186     179     582     588+CONT
+CONT        589     581
CQUAD8       150       4     180     173     181     187     583     584+CONT
+CONT        348     590
CQUAD8       151       3     188     181     174     182     534     347+CONT
+CONT        532     535
CQUAD8       152       3     189     182     175     183     536     533+CONT
+CONT        344     537
CQUAD8       153       4     177     185     191     184     586     591+CONT
+CONT        352     361
CQUAD8       154       4     179     186     192     185     589     592+CONT
+CONT        593     587
CQUAD8       155       4     180     187     193     186     590     349+CONT
+CONT        594     588
CQUAD8       156       3     194     187     181     188     538     348+CONT
+CONT        534     539
CQUAD8       157       3     195     188     182     189     540     535+CONT
+CONT        536     541
CQUAD8       158       3     196     189     183     190     542     537+CONT
+CONT        345     334
CQUAD8       159       4     192     198     191     185     595     353+CONT
+CONT        591     593
CQUAD8       160       4     193     199     192     186     350     596+CONT
+CONT        592     594
CQUAD8       161       3     200     193     187     194     543     349+CONT
+CONT        538     544
CQUAD8       162       3     201     194     188     195     545     539+CONT
+CONT        540     546
CQUAD8       163       3     202     195     189     196     547     541+CONT
+CONT        542     335
CQUAD8       164       2     203     196     190     197     505     334+CONT
+CONT        331     506
CQUAD8       165       4     199     205     198     192     351     354+CONT
+CONT        595     596
CQUAD8       166       3     206     199     193     200     548     350+CONT
+CONT        543     549
CQUAD8       167       3     207     200     194     201     550     544+CONT
+CONT        545     551
CQUAD8       168       3     208     201     195     202     552     546+CONT
+CONT        547     336
CQUAD8       169       2     209     202     196     203     507     335+CONT
+CONT        505     508
CQUAD8       170       2     210     203     197     204     509     506+CONT
+CONT        332     510
CQUAD8       171       3     212     205     199     206     340     351+CONT
+CONT        548     553
CQUAD8       172       3     213     206     200     207     554     549+CONT
+CONT        550     555
CQUAD8       173       3     214     207     201     208     556     551+CONT
+CONT        552     337
CQUAD8       174       2     215     208     202     209     511     336+CONT
+CONT        507     512
CQUAD8       175       2     216     209     203     210     513     508+CONT
+CONT        509     514
CQUAD8       176       2     217     210     204     211     515     510+CONT
+CONT        333     322
CQUAD8       177       3     219     212     206     213     341     553+CONT
+CONT        554     557
CQUAD8       178       3     220     213     207     214     558     555+CONT
+CONT        556     338
CQUAD8       179       2     221     214     208     215     516     337+CONT
+CONT        511     517
CQUAD8       180       2     222     215     209     216     518     512+CONT
+CONT        513     519
CQUAD8       181       2     223     216     210     217     520     514+CONT
+CONT        515     323
CQUAD8       182       1     224     217     211     218     478     322+CONT
+CONT        319     479
CQUAD8       183       3     226     219     213     220     342     557+CONT
+CONT        558     339
CQUAD8       184       2     227     220     214     221     521     338+CONT
+CONT        516     522
CQUAD8       185       2     228     221     215     222     523     517+CONT
+CONT        518     524
CQUAD8       186       2     229     222     216     223     525     519+CONT
+CONT        520     324
CQUAD8       187       1     230     223     217     224     480     323+CONT
+CONT        478     481
CQUAD8       188       1     231     224     218     225     482     479+CONT
+CONT        320     483
CQUAD8       189       2     233     226     220     227     328     339+CONT
+CONT        521     526
CQUAD8       190       2     234     227     221     228     527     522+CONT
+CONT        523     528
CQUAD8       191       2     235     228     222     229     529     524+CONT
+CONT        525     325
CQUAD8       192       1     236     229     223     230     484     324+CONT
+CONT        480     485
CQUAD8       193       1     237     230     224     231     486     481+CONT
+CONT        482     487
CQUAD8       194       1     238     231     225     232     488     483+CONT
+CONT        321     310
CQUAD8       195       2     239     233     227     234     329     526+CONT
+CONT        527     530
CQUAD8       196       2     240     234     228     235     531     528+CONT
+CONT        529     326
CQUAD8       197       1     241     235     229     236     489     325+CONT
+CONT        484     490
CQUAD8       198       1     242     236     230     237     491     485+CONT
+CONT        486     492
CQUAD8       199       1     243     237     231     238     493     487+CONT
+CONT        488     311
CQUAD8       200       2     244     239     234     240     330     530+CONT
+CONT        531     327
CQUAD8       201       1     245     240     235     241     494     326+CONT
+CONT        489     495
CQUAD8       202       1     246     241     236     242     496     490+CONT
+CONT        491     497
CQUAD8       203       1     247     242     237     243     498     492+CONT
+CONT        493     312
CQUAD8       204       1     248     244     240     245     316     327+CONT
+CONT        494     499
CQUAD8       205       1     249     245     241     246     500     495+CONT
+CONT        496     501
CQUAD8       206       1     250     246     242     247     502     497+CONT
+CONT        498     313
CQUAD8       207       1     251     248     245     249     317     499+CONT
+CONT        500     503
CQUAD8       208       1     252     249     246     250     504     501+CONT
+CONT        502     314
CQUAD8       209       1     253     251     249     252     318     503+CONT
+CONT        504     315
$ Property data section
PSHELL         1
PSHELL         2
PSHELL         3
PSHELL         4
PSHELL         5
PSHELL         6
ENDDATA
