$ Generated by COMSOL 6.3.0.290
$ May 15 2026, 09:45
BEGIN BULK
$ Grid data section
GRID           1         88.3011 25.0553 0.00000
GRID           2         86.7154 22.5355 0.00000
GRID           3         86.0626 25.1500 0.00000
GRID           4         90.0000 27.5000 0.00000
GRID           5         85.2577 19.9403 0.00000
GRID           6         84.7211 23.1859 0.00000
GRID           7         84.3577 25.2907 0.00000
GRID           8         87.0312 27.2251 0.00000
GRID           9         83.9435 17.2693 0.00000
GRID          10         83.1884 21.0017 0.00000
GRID          11         82.9142 24.0666 0.00000
GRID          12         84.1415 26.4838 0.00000
GRID          13         82.7898 14.5251 0.00000
GRID          14         81.7329 18.5400 0.00000
GRID          15         81.0007 22.3498 0.00000
GRID          16         81.3594 25.4030 0.00000
GRID          17         80.4677 15.8189 0.00000
GRID          18         81.8141 11.7129 0.00000
GRID          19         79.2694 20.1108 0.00000
GRID          20         78.6794 24.0883 0.00000
GRID          21         88.3011-25.0553 0.00000
GRID          22         77.9903 17.2593 0.00000
GRID          23         79.3518 12.9315 0.00000
GRID          24         81.0334 8.84051 0.00000
GRID          25         76.0812 22.6178 0.00000
GRID          26         90.0000-27.5000 0.00000
GRID          27         86.0423-25.1335 0.00000
GRID          28         86.7154-22.5355 0.00000
GRID          29         75.5681 18.5641 0.00000
GRID          30         76.8035 14.2740 0.00000
GRID          31         78.3488 9.90626 0.00000
GRID          32         80.4633 5.91909 0.00000
GRID          33         73.5407 21.0493 0.00000
GRID          34         87.0312-27.2251 0.00000
GRID          35         84.3310-25.2686 0.00000
GRID          36         84.6616-23.1372 0.00000
GRID          37         85.2577-19.9403 0.00000
GRID          38         82.7898-14.5251 0.00000
GRID          39         80.1158 2.96293 0.00000
GRID          40         73.8765 19.0681 0.00000
GRID          41         74.3791 15.7610 0.00000
GRID          42         75.4845 11.1622 0.00000
GRID          43         77.5339 6.71254 0.00000
GRID          44         71.0338 19.4278 0.00000
GRID          45         84.1415-26.4838 0.00000
GRID          46         83.9435-17.2693 0.00000
GRID          47         82.8462-24.0134 0.00000
GRID          48         83.0412-20.8756 0.00000
GRID          49         81.8141-11.7129 0.00000
GRID          50         80.4176-15.6400 0.00000
GRID          51         80.0000 0.00000 0.00000
GRID          52         76.9971 3.38097 0.00000
GRID          53         72.4332 17.4368 0.00000
GRID          54         72.6446 12.8880 0.00000
GRID          55         74.2777 7.66430 0.00000
GRID          56         68.5364 17.7913 0.00000
GRID          57         81.3594-25.4030 0.00000
GRID          58         81.5439-18.3141 0.00000
GRID          59         80.7822-22.1813 0.00000
GRID          60         81.0334-8.84051 0.00000
GRID          61         79.2548-12.9374 0.00000
GRID          62         78.4818-16.5630 0.00000
GRID          63         80.1158-2.96293 0.00000
GRID          64         76.6667 0.00000 0.00000
GRID          65         73.6431 3.82859 0.00000
GRID          66         70.3643 15.2399 0.00000
GRID          67         70.1135 9.10173 0.00000
GRID          68         66.0254 16.1760 0.00000
GRID          69         78.6794-24.0883 0.00000
GRID          70         78.3891-19.4833 0.00000
GRID          71         80.4633-5.91909 0.00000
GRID          72         78.2399-9.91933 0.00000
GRID          73         76.3686-14.7353 0.00000
GRID          74         76.9684-3.37037 0.00000
GRID          75         73.3333 0.00000 0.00000
GRID          76         70.0349 4.11903 0.00000
GRID          77         67.7616 13.0501 0.00000
GRID          78         65.8338 7.78872 0.00000
GRID          79         63.4768 14.6209 0.00000
GRID          80         76.0812-22.6178 0.00000
GRID          81         75.1271-18.0785 0.00000
GRID          82         77.4683-6.69793 0.00000
GRID          83         75.2520-11.1090 0.00000
GRID          84         73.7347-14.6867 0.00000
GRID          85         73.5948-3.80509 0.00000
GRID          86         70.0000 0.00000 0.00000
GRID          87         66.3923 3.88687 0.00000
GRID          88         64.7281 11.3865 0.00000
GRID          89         62.3985 6.91166 0.00000
GRID          90         60.8662 13.1726 0.00000
GRID          91         73.5407-21.0493 0.00000
GRID          92         72.5881-16.7255 0.00000
GRID          93         74.1617-7.60892 0.00000
GRID          94         72.4190-12.5800 0.00000
GRID          95         69.9931-4.08500 0.00000
GRID          96         66.6667 0.00000 0.00000
GRID          97         62.9352 3.49243 0.00000
GRID          98         61.6712 10.1534 0.00000
GRID          99         59.1997 6.23529 0.00000
GRID         100         58.1700 11.8920 0.00000
GRID         101         71.0338-19.4278 0.00000
GRID         102         70.2832-14.9611 0.00000
GRID         103         70.0201-8.99992 0.00000
GRID         104         66.3644-3.86330 0.00000
GRID         105         63.3333 0.00000 0.00000
GRID         106         59.6299 3.15391 0.00000
GRID         107         58.6932 9.16946 0.00000
GRID         108         56.0921 5.71139 0.00000
GRID         109         55.3707 10.8617 0.00000
GRID         110         68.5364-17.7913 0.00000
GRID         111         67.7064-12.9499 0.00000
GRID         112         65.7895-7.74619 0.00000
GRID         113         62.9211-3.48028 0.00000
GRID         114         60.0000 0.00000 0.00000
GRID         115         56.3938 2.88587 0.00000
GRID         116         55.7464 8.40441 0.00000
GRID         117         53.0318 5.31541 0.00000
GRID         118         52.5509 10.2044 0.00000
GRID         119         66.0254-16.1760 0.00000
GRID         120         64.6980-11.3499 0.00000
GRID         121         62.3770-6.89297 0.00000
GRID         122         59.6228-3.14820 0.00000
GRID         123         56.6667 0.00000 0.00000
GRID         124         53.1897 2.67595 0.00000
GRID         125         52.8406 7.86537 0.00000
GRID         126         50.0000 5.00000 0.00000
GRID         127         50.0000 10.0000 0.00000
GRID         128         63.4768-14.6209 0.00000
GRID         129         61.6566-10.1388 0.00000
GRID         130         59.1890-6.22697 0.00000
GRID         131         56.3904-2.88332 0.00000
GRID         132         53.3333 0.00000 0.00000
GRID         133         50.0000 2.50000 0.00000
GRID         134         50.0000 7.50000 0.00000
GRID         135         48.4040 4.55100 0.00000
GRID         136         46.6667 10.0000 0.00000
GRID         137         60.8662-13.1726 0.00000
GRID         138         58.6860-9.16326 0.00000
GRID         139         56.0869-5.70776 0.00000
GRID         140         53.1884-2.67500 0.00000
GRID         141         50.0000 0.00000 0.00000
GRID         142         48.0321 2.58453 0.00000
GRID         143         46.8254 6.26173 0.00000
GRID         144         43.3333 10.0000 0.00000
GRID         145         58.1700-11.8920 0.00000
GRID         146         55.7430-8.40176 0.00000
GRID         147         53.0298-5.31409 0.00000
GRID         148         50.0000-2.50000 0.00000
GRID         149         47.93150.005402 0.00000
GRID         150         45.8155 2.95840 0.00000
GRID         151         43.2554 6.54796 0.00000
GRID         152         40.0000 10.0000 0.00000
GRID         153         55.3707-10.8617 0.00000
GRID         154         52.8393-7.86440 0.00000
GRID         155         50.0000-5.00000 0.00000
GRID         156         48.0327-2.57996 0.00000
GRID         157         45.60850.006365 0.00000
GRID         158         43.0273 3.21797 0.00000
GRID         159         40.0000 6.66667 0.00000
GRID         160         36.6667 10.0000 0.00000
GRID         161         52.5509-10.2044 0.00000
GRID         162         50.0000-7.50000 0.00000
GRID         163         48.4045-4.54880 0.00000
GRID         164         45.8170-2.95215 0.00000
GRID         165         42.91740.003739 0.00000
GRID         166         40.0000 3.33333 0.00000
GRID         167         36.6667 6.66667 0.00000
GRID         168         33.3333 10.0000 0.00000
GRID         169         50.0000-10.0000 0.00000
GRID         170         46.8267-6.25946 0.00000
GRID         171         43.0319-3.21190 0.00000
GRID         172         40.00007.10E-16 0.00000
GRID         173         36.6667 3.33333 0.00000
GRID         174         33.3333 6.66667 0.00000
GRID         175         30.0000 10.0000 0.00000
GRID         176         46.6667-10.0000 0.00000
GRID         177         43.2604-6.54518 0.00000
GRID         178         40.0000-3.33333 0.00000
GRID         179         36.6667 0.00000 0.00000
GRID         180         33.3333 3.33333 0.00000
GRID         181         30.0000 6.66667 0.00000
GRID         182         26.6667 10.0000 0.00000
GRID         183         43.3333-10.0000 0.00000
GRID         184         40.0000-6.66667 0.00000
GRID         185         36.6667-3.33333 0.00000
GRID         186         33.3333 0.00000 0.00000
GRID         187         30.0000 3.33333 0.00000
GRID         188         26.6667 6.66667 0.00000
GRID         189         23.3333 10.0000 0.00000
GRID         190         40.0000-10.0000 0.00000
GRID         191         36.6667-6.66667 0.00000
GRID         192         33.3333-3.33333 0.00000
GRID         193         30.0000 0.00000 0.00000
GRID         194         26.6667 3.33333 0.00000
GRID         195         23.3333 6.66667 0.00000
GRID         196         20.0000 10.0000 0.00000
GRID         197         36.6667-10.0000 0.00000
GRID         198         33.3333-6.66667 0.00000
GRID         199         30.0000-3.33333 0.00000
GRID         200         26.6667 0.00000 0.00000
GRID         201         23.3333 3.33333 0.00000
GRID         202         20.0000 6.66667 0.00000
GRID         203         16.6667 10.0000 0.00000
GRID         204         33.3333-10.0000 0.00000
GRID         205         30.0000-6.66667 0.00000
GRID         206         26.6667-3.33333 0.00000
GRID         207         23.3333 0.00000 0.00000
GRID         208         20.0000 3.33333 0.00000
GRID         209         16.6667 6.66667 0.00000
GRID         210         13.3333 10.0000 0.00000
GRID         211         30.0000-10.0000 0.00000
GRID         212         26.6667-6.66667 0.00000
GRID         213         23.3333-3.33333 0.00000
GRID         214         20.0000 0.00000 0.00000
GRID         215         16.6667 3.33333 0.00000
GRID         216         13.3333 6.66667 0.00000
GRID         217         10.0000 10.0000 0.00000
GRID         218         26.6667-10.0000 0.00000
GRID         219         23.3333-6.66667 0.00000
GRID         220         20.0000-3.33333 0.00000
GRID         221         16.6667 0.00000 0.00000
GRID         222         13.3333 3.33333 0.00000
GRID         223         10.0000 6.66667 0.00000
GRID         224         6.66667 10.0000 0.00000
GRID         225         23.3333-10.0000 0.00000
GRID         226         20.0000-6.66667 0.00000
GRID         227         16.6667-3.33333 0.00000
GRID         228         13.3333 0.00000 0.00000
GRID         229         10.0000 3.33333 0.00000
GRID         230         6.66667 6.66667 0.00000
GRID         231         3.33333 10.0000 0.00000
GRID         232         20.0000-10.0000 0.00000
GRID         233         16.6667-6.66667 0.00000
GRID         234         13.3333-3.33333 0.00000
GRID         235         10.0000 0.00000 0.00000
GRID         236         6.66667 3.33333 0.00000
GRID         237         3.33333 6.66667 0.00000
GRID         238         0.00000 10.0000 0.00000
GRID         239         16.6667-10.0000 0.00000
GRID         240         13.3333-6.66667 0.00000
GRID         241         10.0000-3.33333 0.00000
GRID         242         6.66667 0.00000 0.00000
GRID         243         3.33333 3.33333 0.00000
GRID         244         0.00000 6.66667 0.00000
GRID         245         13.3333-10.0000 0.00000
GRID         246         10.0000-6.66667 0.00000
GRID         247         6.66667-3.33333 0.00000
GRID         248         3.33333 0.00000 0.00000
GRID         249         0.00000 3.33333 0.00000
GRID         250         10.0000-10.0000 0.00000
GRID         251         6.66667-6.66667 0.00000
GRID         252         3.33333-3.33333 0.00000
GRID         253         0.000007.10E-16 0.00000
GRID         254         6.66667-10.0000 0.00000
GRID         255         3.33333-6.66667 0.00000
GRID         256         0.00000-3.33333 0.00000
GRID         257         3.33333-10.0000 0.00000
GRID         258         0.00000-6.66667 0.00000
GRID         259         0.00000-10.0000 0.00000
GRID         260         88.5098-27.4289 0.00000
GRID         261         85.5733-26.9045 0.00000
GRID         262         82.7367-25.9785 0.00000
GRID         263         80.0078-24.7695 0.00000
GRID         264         77.3715-23.3685 0.00000
GRID         265         74.8053-21.8428 0.00000
GRID         266         72.2846-20.2427 0.00000
GRID         267         69.7854-18.6091 0.00000
GRID         268         67.2841-16.9787 0.00000
GRID         269         64.7573-15.3883 0.00000
GRID         270         62.1808-13.8801 0.00000
GRID         271         59.5301-12.5068 0.00000
GRID         272         56.7840-11.3394 0.00000
GRID         273         53.9727-10.4836 0.00000
GRID         274         51.2793-10.0525 0.00000
GRID         275         88.5098 27.4289 0.00000
GRID         276         85.5733 26.9045 0.00000
GRID         277         82.7367 25.9785 0.00000
GRID         278         80.0078 24.7695 0.00000
GRID         279         77.3715 23.3685 0.00000
GRID         280         74.8053 21.8428 0.00000
GRID         281         72.2846 20.2427 0.00000
GRID         282         69.7854 18.6091 0.00000
GRID         283         67.2841 16.9787 0.00000
GRID         284         64.7573 15.3883 0.00000
GRID         285         62.1808 13.8801 0.00000
GRID         286         59.5301 12.5068 0.00000
GRID         287         56.7840 11.3394 0.00000
GRID         288         53.9727 10.4836 0.00000
GRID         289         51.2793 10.0525 0.00000
GRID         290         89.1372-26.2868 0.00000
GRID         291         87.4932-23.8049 0.00000
GRID         292         85.9697-21.2476 0.00000
GRID         293         84.5816-18.6140 0.00000
GRID         294         83.3455-15.9061 0.00000
GRID         295         82.2786-13.1271 0.00000
GRID         296         81.3984-10.2836 0.00000
GRID         297         80.0278-1.47705 0.00000
GRID         298         80.7212-7.38510 0.00000
GRID         299         80.2612-4.44434 0.00000
GRID         300         87.4932 23.8049 0.00000
GRID         301         89.1372 26.2868 0.00000
GRID         302         85.9697 21.2476 0.00000
GRID         303         84.5816 18.6140 0.00000
GRID         304         83.3455 15.9061 0.00000
GRID         305         82.2786 13.1271 0.00000
GRID         306         81.3984 10.2836 0.00000
GRID         307         80.7212 7.38510 0.00000
GRID         308         80.2612 4.44434 0.00000
GRID         309         80.0278 1.47705 0.00000
GRID         310         0.00000 8.33333 0.00000
GRID         311         0.00000 5.00000 0.00000
GRID         312         0.00000 1.66667 0.00000
GRID         313         0.00000-1.66667 0.00000
GRID         314         0.00000-5.00000 0.00000
GRID         315         0.00000-8.33333 0.00000
GRID         316         38.3333-10.0000 0.00000
GRID         317         35.0000-10.0000 0.00000
GRID         318         31.6667-10.0000 0.00000
GRID         319         28.3333-10.0000 0.00000
GRID         320         25.0000-10.0000 0.00000
GRID         321         21.6667-10.0000 0.00000
GRID         322         18.3333-10.0000 0.00000
GRID         323         15.0000-10.0000 0.00000
GRID         324         11.6667-10.0000 0.00000
GRID         325         8.33333-10.0000 0.00000
GRID         326         5.00000-10.0000 0.00000
GRID         327         1.66667-10.0000 0.00000
GRID         328         38.3333 10.0000 0.00000
GRID         329         35.0000 10.0000 0.00000
GRID         330         31.6667 10.0000 0.00000
GRID         331         28.3333 10.0000 0.00000
GRID         332         25.0000 10.0000 0.00000
GRID         333         21.6667 10.0000 0.00000
GRID         334         18.3333 10.0000 0.00000
GRID         335         15.0000 10.0000 0.00000
GRID         336         11.6667 10.0000 0.00000
GRID         337         8.33333 10.0000 0.00000
GRID         338         5.00000 10.0000 0.00000
GRID         339         1.66667 10.0000 0.00000
GRID         340         40.0000 8.33333 0.00000
GRID         341         40.0000 5.00000 0.00000
GRID         342         40.0000 1.66667 0.00000
GRID         343         40.0000-1.66667 0.00000
GRID         344         40.0000-5.00000 0.00000
GRID         345         40.0000-8.33333 0.00000
GRID         346         48.3333-10.0000 0.00000
GRID         347         45.0000-10.0000 0.00000
GRID         348         41.6667-10.0000 0.00000
GRID         349         48.3333 10.0000 0.00000
GRID         350         45.0000 10.0000 0.00000
GRID         351         41.6667 10.0000 0.00000
GRID         352         50.0000-1.25000 0.00000
GRID         353         50.0000-3.75000 0.00000
GRID         354         50.0000-6.25000 0.00000
GRID         355         50.0000-8.75001 0.00000
GRID         356         50.0000 3.75000 0.00000
GRID         357         50.0000 6.25000 0.00000
GRID         358         50.0000 8.75001 0.00000
GRID         359         50.0000 1.25000 0.00000
GRID         360         78.3333 0.00000 0.00000
GRID         361         75.0000 0.00000 0.00000
GRID         362         71.6667 0.00000 0.00000
GRID         363         68.3333 0.00000 0.00000
GRID         364         65.0000 0.00000 0.00000
GRID         365         61.6667 0.00000 0.00000
GRID         366         58.3333 0.00000 0.00000
GRID         367         55.0000 0.00000 0.00000
GRID         368         51.6667 0.00000 0.00000
GRID         369         87.1717-25.0944 0.00000
GRID         370         86.5367-26.1793 0.00000
GRID         371         85.3520-24.1354 0.00000
GRID         372         85.6885-22.8364 0.00000
GRID         373         85.1866-25.2011 0.00000
GRID         374         84.2362-25.8762 0.00000
GRID         375         83.8514-22.0064 0.00000
GRID         376         84.1494-20.4079 0.00000
GRID         377         83.5886-24.6410 0.00000
GRID         378         82.1028-24.7082 0.00000
GRID         379         82.2925-19.5948 0.00000
GRID         380         82.7437-17.7917 0.00000
GRID         381         80.9808-16.9770 0.00000
GRID         382         81.6037-15.0825 0.00000
GRID         383         80.5345-12.3251 0.00000
GRID         384         79.8362-14.2887 0.00000
GRID         385         81.8142-23.0973 0.00000
GRID         386         79.7308-23.1348 0.00000
GRID         387         79.6367-9.37992 0.00000
GRID         388         78.7474-11.4283 0.00000
GRID         389         78.5421-3.16665 0.00000
GRID         390         76.8176-1.68518 0.00000
GRID         391         79.5856-20.8323 0.00000
GRID         392         77.2352-21.0505 0.00000
GRID         393         78.9658-6.30851 0.00000
GRID         394         77.2184-5.03415 0.00000
GRID         395         77.8541-8.30863 0.00000
GRID         396         74.3339-19.5639 0.00000
GRID         397         76.7581-18.7809 0.00000
GRID         398         71.8109-18.0766 0.00000
GRID         399         73.8576-17.4020 0.00000
GRID         400         71.4356-15.8433 0.00000
GRID         401         69.4098-16.3762 0.00000
GRID         402         68.9948-13.9555 0.00000
GRID         403         66.8659-14.5630 0.00000
GRID         404         64.0874-12.9854 0.00000
GRID         405         66.2022-12.1499 0.00000
GRID         406         61.2614-11.6557 0.00000
GRID         407         63.1773-10.7443 0.00000
GRID         408         58.4280-10.5276 0.00000
GRID         409         60.1713-9.65101 0.00000
GRID         410         55.5569-9.63175 0.00000
GRID         411         57.2145-8.78251 0.00000
GRID         412         52.6951-9.03442 0.00000
GRID         413         54.2912-8.13308 0.00000
GRID         414         51.4197-7.68220 0.00000
GRID         415         85.3919 24.1679 0.00000
GRID         416         87.1819 25.1027 0.00000
GRID         417         85.7182 22.8607 0.00000
GRID         418         86.5469 26.1876 0.00000
GRID         419         83.9548 22.0938 0.00000
GRID         420         84.2231 20.4710 0.00000
GRID         421         85.2102 25.2204 0.00000
GRID         422         84.2496 25.8873 0.00000
GRID         423         82.4607 19.7708 0.00000
GRID         424         82.8382 17.9046 0.00000
GRID         425         83.6359 24.6787 0.00000
GRID         426         82.1368 24.7348 0.00000
GRID         427         81.1003 17.1795 0.00000
GRID         428         81.6288 15.1720 0.00000
GRID         429         79.8400 23.2190 0.00000
GRID         430         81.9575 23.2082 0.00000
GRID         431         79.9097 14.3752 0.00000
GRID         432         80.5829 12.3222 0.00000
GRID         433         77.6753 21.3643 0.00000
GRID         434         80.1350 21.2303 0.00000
GRID         435         78.8503 11.4189 0.00000
GRID         436         79.6911 9.37339 0.00000
GRID         437         74.7223 18.8161 0.00000
GRID         438         73.7086 20.0587 0.00000
GRID         439         75.8247 20.5909 0.00000
GRID         440         77.9413 8.30940 0.00000
GRID         441         78.9986 6.31582 0.00000
GRID         442         77.2655 5.04676 0.00000
GRID         443         78.5564 3.17195 0.00000
GRID         444         73.1549 18.2524 0.00000
GRID         445         71.7335 18.4323 0.00000
GRID         446         76.8319 1.69049 0.00000
GRID         447         71.3988 16.3384 0.00000
GRID         448         69.4504 16.5156 0.00000
GRID         449         69.0630 14.1450 0.00000
GRID         450         66.8935 14.6131 0.00000
GRID         451         64.1024 13.0037 0.00000
GRID         452         66.2449 12.2183 0.00000
GRID         453         61.2687 11.6630 0.00000
GRID         454         63.1997 10.7700 0.00000
GRID         455         58.4316 10.5307 0.00000
GRID         456         60.1822 9.66146 0.00000
GRID         457         55.5586 9.63308 0.00000
GRID         458         57.2198 8.78694 0.00000
GRID         459         52.6958 9.03491 0.00000
GRID         460         54.2935 8.13489 0.00000
GRID         461         51.4203 7.68269 0.00000
GRID         462         38.3333 6.66667 0.00000
GRID         463         36.6667 8.33333 0.00000
GRID         464         38.3333 3.33333 0.00000
GRID         465         36.6667 5.00000 0.00000
GRID         466         35.0000 6.66667 0.00000
GRID         467         33.3333 8.33333 0.00000
GRID         468         38.33333.55E-16 0.00000
GRID         469         36.6667 1.66667 0.00000
GRID         470         35.0000 3.33333 0.00000
GRID         471         33.3333 5.00000 0.00000
GRID         472         31.6667 6.66667 0.00000
GRID         473         30.0000 8.33333 0.00000
GRID         474         38.3333-3.33333 0.00000
GRID         475         36.6667-1.66667 0.00000
GRID         476         35.0000 0.00000 0.00000
GRID         477         33.3333 1.66667 0.00000
GRID         478         31.6667 3.33333 0.00000
GRID         479         30.0000 5.00000 0.00000
GRID         480         28.3333 6.66667 0.00000
GRID         481         26.6667 8.33333 0.00000
GRID         482         38.3333-6.66667 0.00000
GRID         483         36.6667-5.00000 0.00000
GRID         484         35.0000-3.33333 0.00000
GRID         485         33.3333-1.66667 0.00000
GRID         486         31.6667 0.00000 0.00000
GRID         487         30.0000 1.66667 0.00000
GRID         488         28.3333 3.33333 0.00000
GRID         489         26.6667 5.00000 0.00000
GRID         490         25.0000 6.66667 0.00000
GRID         491         23.3333 8.33333 0.00000
GRID         492         36.6667-8.33333 0.00000
GRID         493         35.0000-6.66667 0.00000
GRID         494         33.3333-5.00000 0.00000
GRID         495         31.6667-3.33333 0.00000
GRID         496         30.0000-1.66667 0.00000
GRID         497         28.3333 0.00000 0.00000
GRID         498         26.6667 1.66667 0.00000
GRID         499         25.0000 3.33333 0.00000
GRID         500         23.3333 5.00000 0.00000
GRID         501         21.6667 6.66667 0.00000
GRID         502         20.0000 8.33333 0.00000
GRID         503         33.3333-8.33333 0.00000
GRID         504         31.6667-6.66667 0.00000
GRID         505         30.0000-5.00000 0.00000
GRID         506         28.3333-3.33333 0.00000
GRID         507         26.6667-1.66667 0.00000
GRID         508         25.0000 0.00000 0.00000
GRID         509         23.3333 1.66667 0.00000
GRID         510         21.6667 3.33333 0.00000
GRID         511         20.0000 5.00000 0.00000
GRID         512         18.3333 6.66667 0.00000
GRID         513         16.6667 8.33333 0.00000
GRID         514         30.0000-8.33333 0.00000
GRID         515         28.3333-6.66667 0.00000
GRID         516         26.6667-5.00000 0.00000
GRID         517         25.0000-3.33333 0.00000
GRID         518         23.3333-1.66667 0.00000
GRID         519         21.6667 0.00000 0.00000
GRID         520         20.0000 1.66667 0.00000
GRID         521         18.3333 3.33333 0.00000
GRID         522         16.6667 5.00000 0.00000
GRID         523         15.0000 6.66667 0.00000
GRID         524         13.3333 8.33333 0.00000
GRID         525         26.6667-8.33333 0.00000
GRID         526         25.0000-6.66667 0.00000
GRID         527         23.3333-5.00000 0.00000
GRID         528         21.6667-3.33333 0.00000
GRID         529         20.0000-1.66667 0.00000
GRID         530         18.3333 0.00000 0.00000
GRID         531         16.6667 1.66667 0.00000
GRID         532         15.0000 3.33333 0.00000
GRID         533         13.3333 5.00000 0.00000
GRID         534         11.6667 6.66667 0.00000
GRID         535         10.0000 8.33333 0.00000
GRID         536         23.3333-8.33333 0.00000
GRID         537         21.6667-6.66667 0.00000
GRID         538         20.0000-5.00000 0.00000
GRID         539         18.3333-3.33333 0.00000
GRID         540         16.6667-1.66667 0.00000
GRID         541         15.0000 0.00000 0.00000
GRID         542         13.3333 1.66667 0.00000
GRID         543         11.6667 3.33333 0.00000
GRID         544         10.0000 5.00000 0.00000
GRID         545         8.33333 6.66667 0.00000
GRID         546         6.66667 8.33333 0.00000
GRID         547         20.0000-8.33333 0.00000
GRID         548         18.3333-6.66667 0.00000
GRID         549         16.6667-5.00000 0.00000
GRID         550         15.0000-3.33333 0.00000
GRID         551         13.3333-1.66667 0.00000
GRID         552         11.6667 0.00000 0.00000
GRID         553         10.0000 1.66667 0.00000
GRID         554         8.33333 3.33333 0.00000
GRID         555         6.66667 5.00000 0.00000
GRID         556         5.00000 6.66667 0.00000
GRID         557         3.33333 8.33333 0.00000
GRID         558         16.6667-8.33333 0.00000
GRID         559         15.0000-6.66667 0.00000
GRID         560         13.3333-5.00000 0.00000
GRID         561         11.6667-3.33333 0.00000
GRID         562         10.0000-1.66667 0.00000
GRID         563         8.33333 0.00000 0.00000
GRID         564         6.66667 1.66667 0.00000
GRID         565         5.00000 3.33333 0.00000
GRID         566         3.33333 5.00000 0.00000
GRID         567         1.66667 6.66667 0.00000
GRID         568         13.3333-8.33333 0.00000
GRID         569         11.6667-6.66667 0.00000
GRID         570         10.0000-5.00000 0.00000
GRID         571         8.33333-3.33333 0.00000
GRID         572         6.66667-1.66667 0.00000
GRID         573         5.00000 0.00000 0.00000
GRID         574         3.33333 1.66667 0.00000
GRID         575         1.66667 3.33333 0.00000
GRID         576         10.0000-8.33333 0.00000
GRID         577         8.33333-6.66667 0.00000
GRID         578         6.66667-5.00000 0.00000
GRID         579         5.00000-3.33333 0.00000
GRID         580         3.33333-1.66667 0.00000
GRID         581         1.666673.55E-16 0.00000
GRID         582         6.66667-8.33333 0.00000
GRID         583         5.00000-6.66667 0.00000
GRID         584         3.33333-5.00000 0.00000
GRID         585         1.66667-3.33333 0.00000
GRID         586         3.33333-8.33333 0.00000
GRID         587         1.66667-6.66667 0.00000
GRID         588         48.2180 3.56776 0.00000
GRID         589         49.2020 4.77550 0.00000
GRID         590         49.0161 2.54226 0.00000
GRID         591         47.6147 5.40637 0.00000
GRID         592         48.4127 6.88087 0.00000
GRID         593         46.7460 8.13087 0.00000
GRID         594         47.9818 1.29496 0.00000
GRID         595         48.96580.002701 0.00000
GRID         596         46.3204 4.61007 0.00000
GRID         597         46.9238 2.77146 0.00000
GRID         598         45.0404 6.40485 0.00000
GRID         599         43.2943 8.27398 0.00000
GRID         600         49.0164-2.53998 0.00000
GRID         601         47.9821-1.28728 0.00000
GRID         602         45.7120 1.48238 0.00000
GRID         603         46.77000.005884 0.00000
GRID         604         44.4214 3.08818 0.00000
GRID         605         43.1413 4.88297 0.00000
GRID         606         41.6277 6.60732 0.00000
GRID         607         49.2023-4.77440 0.00000
GRID         608         48.2186-3.56438 0.00000
GRID         609         46.9249-2.76606 0.00000
GRID         610         45.7128-1.47289 0.00000
GRID         611         44.26300.005052 0.00000
GRID         612         42.9724 1.61085 0.00000
GRID         613         41.5136 3.27565 0.00000
GRID         614         47.6156-5.40413 0.00000
GRID         615         48.4133-6.87973 0.00000
GRID         616         46.3219-4.60581 0.00000
GRID         617         42.9747-1.60408 0.00000
GRID         618         44.4245-3.08203 0.00000
GRID         619         41.45870.001869 0.00000
GRID         620         46.7467-8.12973 0.00000
GRID         621         43.1462-4.87854 0.00000
GRID         622         45.0435-6.40232 0.00000
GRID         623         41.5160-3.27262 0.00000
GRID         624         43.2969-8.27259 0.00000
GRID         625         41.6302-6.60592 0.00000
GRID         626         83.7539-23.5753 0.00000
GRID         627         81.9117-21.5284 0.00000
GRID         628         79.9665-18.8987 0.00000
GRID         629         78.4354-18.0231 0.00000
GRID         630         79.4497-16.1015 0.00000
GRID         631         77.4252-15.6491 0.00000
GRID         632         77.8117-13.8363 0.00000
GRID         633         75.7478-16.4069 0.00000
GRID         634         76.7459-10.5141 0.00000
GRID         635         75.8103-12.9221 0.00000
GRID         636         73.4641-1.90254 0.00000
GRID         637         75.2816-3.58773 0.00000
GRID         638         73.1614-15.7061 0.00000
GRID         639         75.0516-14.7110 0.00000
GRID         640         75.8150-7.15343 0.00000
GRID         641         74.7069-9.35894 0.00000
GRID         642         73.8783-5.70701 0.00000
GRID         643         73.0768-13.6333 0.00000
GRID         644         73.8355-11.8445 0.00000
GRID         645         69.9965-2.04250 0.00000
GRID         646         71.7939-3.94504 0.00000
GRID         647         71.3511-13.7705 0.00000
GRID         648         72.0909-8.30442 0.00000
GRID         649         70.0066-6.54246 0.00000
GRID         650         71.2195-10.7899 0.00000
GRID         651         66.5155-1.93165 0.00000
GRID         652         68.1787-3.97415 0.00000
GRID         653         68.8632-10.9749 0.00000
GRID         654         67.9048-8.37305 0.00000
GRID         655         66.0770-5.80474 0.00000
GRID         656         63.1272-1.74014 0.00000
GRID         657         64.6427-3.67179 0.00000
GRID         658         65.2438-9.54803 0.00000
GRID         659         64.0833-7.31958 0.00000
GRID         660         62.6490-5.18662 0.00000
GRID         661         59.8114-1.57410 0.00000
GRID         662         61.2719-3.31424 0.00000
GRID         663         62.0168-8.51587 0.00000
GRID         664         60.7830-6.55997 0.00000
GRID         665         59.4059-4.68758 0.00000
GRID         666         56.5285-1.44166 0.00000
GRID         667         58.0066-3.01576 0.00000
GRID         668         58.9375-7.69511 0.00000
GRID         669         57.6380-5.96736 0.00000
GRID         670         56.2387-4.29554 0.00000
GRID         671         53.2609-1.33750 0.00000
GRID         672         54.7894-2.77916 0.00000
GRID         673         55.9150-7.05476 0.00000
GRID         674         54.5584-5.51092 0.00000
GRID         675         53.1091-3.99455 0.00000
GRID         676         51.5942-2.58750 0.00000
GRID         677         52.9346-6.58925 0.00000
GRID         678         51.5149-5.15705 0.00000
GRID         679         83.8177 23.6262 0.00000
GRID         680         82.0946 21.6757 0.00000
GRID         681         80.5011 19.3254 0.00000
GRID         682         78.6298 18.6851 0.00000
GRID         683         79.2290 16.5391 0.00000
GRID         684         76.7792 17.9117 0.00000
GRID         685         77.3969 15.7667 0.00000
GRID         686         78.0776 13.6027 0.00000
GRID         687         75.5913 15.0175 0.00000
GRID         688         74.9736 17.1625 0.00000
GRID         689         76.1440 12.7181 0.00000
GRID         690         76.9167 10.5342 0.00000
GRID         691         73.4061 16.5989 0.00000
GRID         692         73.5118 14.3245 0.00000
GRID         693         74.0646 12.0251 0.00000
GRID         694         74.8811 9.41324 0.00000
GRID         695         75.9058 7.18842 0.00000
GRID         696         73.9604 5.74644 0.00000
GRID         697         75.3201 3.60478 0.00000
GRID         698         71.5045 14.0640 0.00000
GRID         699         71.3791 10.9949 0.00000
GRID         700         72.1956 8.38301 0.00000
GRID         701         73.4882 1.91429 0.00000
GRID         702         70.0742 6.61038 0.00000
GRID         703         71.8390 3.97381 0.00000
GRID         704         68.9376 11.0759 0.00000
GRID         705         70.0174 2.05952 0.00000
GRID         706         66.1130 5.83780 0.00000
GRID         707         67.9737 8.44523 0.00000
GRID         708         68.2136 4.00295 0.00000
GRID         709         65.2810 9.58761 0.00000
GRID         710         66.5295 1.94343 0.00000
GRID         711         62.6669 5.20204 0.00000
GRID         712         64.1162 7.35019 0.00000
GRID         713         64.6637 3.68965 0.00000
GRID         714         62.0349 8.53255 0.00000
GRID         715         63.1343 1.74621 0.00000
GRID         716         59.4148 4.69460 0.00000
GRID         717         60.7991 6.57347 0.00000
GRID         718         61.2825 3.32317 0.00000
GRID         719         58.9464 7.70238 0.00000
GRID         720         59.8149 1.57695 0.00000
GRID         721         56.2429 4.29863 0.00000
GRID         722         57.6459 5.97334 0.00000
GRID         723         58.0118 3.01989 0.00000
GRID         724         55.9193 7.05790 0.00000
GRID         725         56.5302 1.44294 0.00000
GRID         726         53.1108 3.99568 0.00000
GRID         727         54.5620 5.51340 0.00000
GRID         728         54.7917 2.78091 0.00000
GRID         729         52.9362 6.59039 0.00000
GRID         730         53.2615 1.33798 0.00000
GRID         731         51.5159 5.15771 0.00000
GRID         732         51.5949 2.58798 0.00000
$ Element data section
CQUAD8         1       4       3       6       2       1     415     417+CONT
+CONT        300     416
CQUAD8         2       4       1       4       8       3     301     275+CONT
+CONT        418     416
CQUAD8         3       4       6      10       5       2     419     420+CONT
+CONT        302     417
CQUAD8         4       4       7      11       6       3     425     679+CONT
+CONT        415     421
CQUAD8         5       4       3       8      12       7     418     276+CONT
+CONT        422     421
CQUAD8         6       4      10      14       9       5     423     424+CONT
+CONT        303     420
CQUAD8         7       4      11      15      10       6     430     680+CONT
+CONT        419     679
CQUAD8         8       4       7      12      16      11     422     277+CONT
+CONT        426     425
CQUAD8         9       4       9      14      17      13     424     427+CONT
+CONT        428     304
CQUAD8        10       4      15      19      14      10     434     681+CONT
+CONT        423     680
CQUAD8        11       4      16      20      15      11     278     429+CONT
+CONT        430     426
CQUAD8        12       4      14      19      22      17     681     682+CONT
+CONT        683     427
CQUAD8        13       4      13      17      23      18     428     431+CONT
+CONT        432     305
CQUAD8        14       4      20      25      19      15     279     433+CONT
+CONT        434     429
CQUAD8        15       4      29      22      19      25     684     682+CONT
+CONT        433     439
CQUAD8        16       4      17      22      30      23     683     685+CONT
+CONT        686     431
CQUAD8        17       4      18      23      31      24     432     435+CONT
+CONT        436     306
CQUAD8        18       3      21      27      34      26     369     370+CONT
+CONT        260     290
CQUAD8        19       3      27      21      28      36     369     291+CONT
+CONT        372     371
CQUAD8        20       4      40      29      25      33     437     439+CONT
+CONT        280     438
CQUAD8        21       4      41      30      22      29     687     685+CONT
+CONT        684     688
CQUAD8        22       4      23      30      42      31     686     689+CONT
+CONT        690     435
CQUAD8        23       4      24      31      43      32     436     440+CONT
+CONT        441     307
CQUAD8        24       3      27      35      45      34     373     374+CONT
+CONT        261     370
CQUAD8        25       3      35      27      36      47     373     371+CONT
+CONT        626     377
CQUAD8        26       3      36      28      37      48     372     292+CONT
+CONT        376     375
CQUAD8        27       4      32      43      52      39     441     442+CONT
+CONT        443     308
CQUAD8        28       4      40      33      44      53     438     281+CONT
+CONT        445     444
CQUAD8        29       4      40      53      41      29     444     691+CONT
+CONT        688     437
CQUAD8        30       4      30      41      54      42     687     692+CONT
+CONT        693     689
CQUAD8        31       4      31      42      55      43     690     694+CONT
+CONT        695     440
CQUAD8        32       3      35      47      57      45     377     378+CONT
+CONT        262     374
CQUAD8        33       3      48      37      46      58     376     293+CONT
+CONT        380     379
CQUAD8        34       3      50      58      46      38     381     380+CONT
+CONT        294     382
CQUAD8        35       3      47      36      48      59     626     375+CONT
+CONT        627     385
CQUAD8        36       3      38      49      61      50     295     383+CONT
+CONT        384     382
CQUAD8        37       4      39      52      64      51     443     446+CONT
+CONT        360     309
CQUAD8        38       4      43      55      65      52     695     696+CONT
+CONT        697     442
CQUAD8        39       4      53      44      56      66     445     282+CONT
+CONT        448     447
CQUAD8        40       4      41      53      66      54     691     447+CONT
+CONT        698     692
CQUAD8        41       4      42      54      67      55     693     699+CONT
+CONT        700     694
CQUAD8        42       3      57      47      59      69     378     385+CONT
+CONT        386     263
CQUAD8        43       3      59      48      58      70     627     379+CONT
+CONT        628     391
CQUAD8        44       3      62      70      58      50     629     628+CONT
+CONT        381     630
CQUAD8        45       3      49      60      72      61     296     387+CONT
+CONT        388     383
CQUAD8        46       3      62      50      61      73     630     384+CONT
+CONT        632     631
CQUAD8        47       3      63      51      64      74     297     360+CONT
+CONT        390     389
CQUAD8        48       4      64      52      65      75     446     697+CONT
+CONT        701     361
CQUAD8        49       4      55      67      76      65     700     702+CONT
+CONT        703     696
CQUAD8        50       4      66      56      68      77     448     283+CONT
+CONT        450     449
CQUAD8        51       4      54      66      77      67     698     449+CONT
+CONT        704     699
CQUAD8        52       3      69      59      70      80     386     391+CONT
+CONT        392     264
CQUAD8        53       3      62      73      81      70     631     633+CONT
+CONT        397     629
CQUAD8        54       3      71      63      74      82     299     389+CONT
+CONT        394     393
CQUAD8        55       3      60      71      82      72     298     393+CONT
+CONT        395     387
CQUAD8        56       3      61      72      83      73     388     634+CONT
+CONT        635     632
CQUAD8        57       3      64      75      85      74     361     636+CONT
+CONT        637     390
CQUAD8        58       4      75      65      76      86     701     703+CONT
+CONT        705     362
CQUAD8        59       4      78      87      76      67     706     708+CONT
+CONT        702     707
CQUAD8        60       4      79      88      77      68     451     452+CONT
+CONT        450     284
CQUAD8        61       4      88      78      67      77     709     707+CONT
+CONT        704     452
CQUAD8        62       3      81      91      80      70     396     265+CONT
+CONT        392     397
CQUAD8        63       3      84      92      81      73     638     399+CONT
+CONT        633     639
CQUAD8        64       3      72      82      93      83     395     640+CONT
+CONT        641     634
CQUAD8        65       3      82      74      85      93     394     637+CONT
+CONT        642     640
CQUAD8        66       3      84      73      83      94     639     635+CONT
+CONT        644     643
CQUAD8        67       3      75      86      95      85     362     645+CONT
+CONT        646     636
CQUAD8        68       4      96      86      76      87     363     705+CONT
+CONT        708     710
CQUAD8        69       4      89      97      87      78     711     713+CONT
+CONT        706     712
CQUAD8        70       4      90      98      88      79     453     454+CONT
+CONT        451     285
CQUAD8        71       4      98      89      78      88     714     712+CONT
+CONT        709     454
CQUAD8        72       3     101      91      81      92     266     396+CONT
+CONT        399     398
CQUAD8        73       3      84      94     102      92     643     647+CONT
+CONT        400     638
CQUAD8        74       3      93      85      95     103     642     646+CONT
+CONT        649     648
CQUAD8        75       3      83      93     103      94     641     648+CONT
+CONT        650     644
CQUAD8        76       3      96     104      95      86     651     652+CONT
+CONT        645     363
CQUAD8        77       4     105      96      87      97     364     710+CONT
+CONT        713     715
CQUAD8        78       4      99     106      97      89     716     718+CONT
+CONT        711     717
CQUAD8        79       4     100     107      98      90     455     456+CONT
+CONT        453     286
CQUAD8        80       4     107      99      89      98     719     717+CONT
+CONT        714     456
CQUAD8        81       3      92     102     110     101     400     401+CONT
+CONT        267     398
CQUAD8        82       3      94     103     111     102     650     653+CONT
+CONT        402     647
CQUAD8        83       3     112     103      95     104     654     649+CONT
+CONT        652     655
CQUAD8        84       3     105     113     104      96     656     657+CONT
+CONT        651     364
CQUAD8        85       4     114     105      97     106     365     715+CONT
+CONT        718     720
CQUAD8        86       4     108     115     106      99     721     723+CONT
+CONT        716     722
CQUAD8        87       4     109     116     107     100     457     458+CONT
+CONT        455     287
CQUAD8        88       4     116     108      99     107     724     722+CONT
+CONT        719     458
CQUAD8        89       3     102     111     119     110     402     403+CONT
+CONT        268     401
CQUAD8        90       3     120     111     103     112     405     653+CONT
+CONT        654     658
CQUAD8        91       3     121     112     104     113     659     655+CONT
+CONT        657     660
CQUAD8        92       3     114     122     113     105     661     662+CONT
+CONT        656     365
CQUAD8        93       4     123     114     106     115     366     720+CONT
+CONT        723     725
CQUAD8        94       4     117     124     115     108     726     728+CONT
+CONT        721     727
CQUAD8        95       4     118     125     116     109     459     460+CONT
+CONT        457     288
CQUAD8        96       4     125     117     108     116     729     727+CONT
+CONT        724     460
CQUAD8        97       3     128     119     111     120     269     403+CONT
+CONT        405     404
CQUAD8        98       3     129     120     112     121     407     658+CONT
+CONT        659     663
CQUAD8        99       3     130     121     113     122     664     660+CONT
+CONT        662     665
CQUAD8       100       3     123     131     122     114     666     667+CONT
+CONT        661     366
CQUAD8       101       4     132     123     115     124     367     725+CONT
+CONT        728     730
CQUAD8       102       4     126     133     124     117     356     732+CONT
+CONT        726     731
CQUAD8       103       4     127     134     125     118     358     461+CONT
+CONT        459     289
CQUAD8       104       4     134     126     117     125     357     731+CONT
+CONT        729     461
CQUAD8       105       3     137     128     120     129     270     404+CONT
+CONT        407     406
CQUAD8       106       3     138     129     121     130     409     663+CONT
+CONT        664     668
CQUAD8       107       3     139     130     122     131     669     665+CONT
+CONT        667     670
CQUAD8       108       3     132     140     131     123     671     672+CONT
+CONT        666     367
CQUAD8       109       4     133     141     132     124     359     368+CONT
+CONT        730     732
CQUAD8       110       2     135     142     133     126     588     590+CONT
+CONT        356     589
CQUAD8       111       2     135     126     134     143     589     357+CONT
+CONT        592     591
CQUAD8       112       2     134     127     136     143     358     349+CONT
+CONT        593     592
CQUAD8       113       3     145     137     129     138     271     406+CONT
+CONT        409     408
CQUAD8       114       3     146     138     130     139     411     668+CONT
+CONT        669     673
CQUAD8       115       3     147     139     131     140     674     670+CONT
+CONT        672     675
CQUAD8       116       3     148     140     132     141     676     671+CONT
+CONT        368     352
CQUAD8       117       2     133     142     149     141     590     594+CONT
+CONT        595     359
CQUAD8       118       2     135     143     150     142     591     596+CONT
+CONT        597     588
CQUAD8       119       2     151     143     136     144     598     593+CONT
+CONT        350     599
CQUAD8       120       3     153     145     138     146     272     408+CONT
+CONT        411     410
CQUAD8       121       3     154     146     139     147     413     673+CONT
+CONT        674     677
CQUAD8       122       3     155     147     140     148     678     675+CONT
+CONT        676     353
CQUAD8       123       2     148     141     149     156     352     595+CONT
+CONT        601     600
CQUAD8       124       2     142     150     157     149     597     602+CONT
+CONT        603     594
CQUAD8       125       2     150     143     151     158     596     598+CONT
+CONT        605     604
CQUAD8       126       2     159     151     144     152     606     599+CONT
+CONT        351     340
CQUAD8       127       3     161     153     146     154     273     410+CONT
+CONT        413     412
CQUAD8       128       3     162     154     147     155     414     677+CONT
+CONT        678     354
CQUAD8       129       2     163     155     148     156     607     353+CONT
+CONT        600     608
CQUAD8       130       2     156     149     157     164     601     603+CONT
+CONT        610     609
CQUAD8       131       2     157     150     158     165     602     604+CONT
+CONT        612     611
CQUAD8       132       2     166     158     151     159     613     605+CONT
+CONT        606     341
CQUAD8       133       1     167     159     152     160     462     340+CONT
+CONT        328     463
CQUAD8       134       3     169     161     154     162     274     412+CONT
+CONT        414     355
CQUAD8       135       2     163     170     162     155     614     615+CONT
+CONT        354     607
CQUAD8       136       2     163     156     164     170     608     609+CONT
+CONT        616     614
CQUAD8       137       2     157     165     171     164     611     617+CONT
+CONT        618     610
CQUAD8       138       2     165     158     166     172     612     613+CONT
+CONT        342     619
CQUAD8       139       1     173     166     159     167     464     341+CONT
+CONT        462     465
CQUAD8       140       1     174     167     160     168     466     463+CONT
+CONT        329     467
CQUAD8       141       2     162     170     176     169     615     620+CONT
+CONT        346     355
CQUAD8       142       2     164     171     177     170     618     621+CONT
+CONT        622     616
CQUAD8       143       2     165     172     178     171     619     343+CONT
+CONT        623     617
CQUAD8       144       1     179     172     166     173     468     342+CONT
+CONT        464     469
CQUAD8       145       1     180     173     167     174     470     465+CONT
+CONT        466     471
CQUAD8       146       1     181     174     168     175     472     467+CONT
+CONT        330     473
CQUAD8       147       2     177     183     176     170     624     347+CONT
+CONT        620     622
CQUAD8       148       2     178     184     177     171     344     625+CONT
+CONT        621     623
CQUAD8       149       1     185     178     172     179     474     343+CONT
+CONT        468     475
CQUAD8       150       1     186     179     173     180     476     469+CONT
+CONT        470     477
CQUAD8       151       1     187     180     174     181     478     471+CONT
+CONT        472     479
CQUAD8       152       1     188     181     175     182     480     473+CONT
+CONT        331     481
CQUAD8       153       2     184     190     183     177     345     348+CONT
+CONT        624     625
CQUAD8       154       1     191     184     178     185     482     344+CONT
+CONT        474     483
CQUAD8       155       1     192     185     179     186     484     475+CONT
+CONT        476     485
CQUAD8       156       1     193     186     180     187     486     477+CONT
+CONT        478     487
CQUAD8       157       1     194     187     181     188     488     479+CONT
+CONT        480     489
CQUAD8       158       1     195     188     182     189     490     481+CONT
+CONT        332     491
CQUAD8       159       1     197     190     184     191     316     345+CONT
+CONT        482     492
CQUAD8       160       1     198     191     185     192     493     483+CONT
+CONT        484     494
CQUAD8       161       1     199     192     186     193     495     485+CONT
+CONT        486     496
CQUAD8       162       1     200     193     187     194     497     487+CONT
+CONT        488     498
CQUAD8       163       1     201     194     188     195     499     489+CONT
+CONT        490     500
CQUAD8       164       1     202     195     189     196     501     491+CONT
+CONT        333     502
CQUAD8       165       1     204     197     191     198     317     492+CONT
+CONT        493     503
CQUAD8       166       1     205     198     192     199     504     494+CONT
+CONT        495     505
CQUAD8       167       1     206     199     193     200     506     496+CONT
+CONT        497     507
CQUAD8       168       1     207     200     194     201     508     498+CONT
+CONT        499     509
CQUAD8       169       1     208     201     195     202     510     500+CONT
+CONT        501     511
CQUAD8       170       1     209     202     196     203     512     502+CONT
+CONT        334     513
CQUAD8       171       1     211     204     198     205     318     503+CONT
+CONT        504     514
CQUAD8       172       1     212     205     199     206     515     505+CONT
+CONT        506     516
CQUAD8       173       1     213     206     200     207     517     507+CONT
+CONT        508     518
CQUAD8       174       1     214     207     201     208     519     509+CONT
+CONT        510     520
CQUAD8       175       1     215     208     202     209     521     511+CONT
+CONT        512     522
CQUAD8       176       1     216     209     203     210     523     513+CONT
+CONT        335     524
CQUAD8       177       1     218     211     205     212     319     514+CONT
+CONT        515     525
CQUAD8       178       1     219     212     206     213     526     516+CONT
+CONT        517     527
CQUAD8       179       1     220     213     207     214     528     518+CONT
+CONT        519     529
CQUAD8       180       1     221     214     208     215     530     520+CONT
+CONT        521     531
CQUAD8       181       1     222     215     209     216     532     522+CONT
+CONT        523     533
CQUAD8       182       1     223     216     210     217     534     524+CONT
+CONT        336     535
CQUAD8       183       1     225     218     212     219     320     525+CONT
+CONT        526     536
CQUAD8       184       1     226     219     213     220     537     527+CONT
+CONT        528     538
CQUAD8       185       1     227     220     214     221     539     529+CONT
+CONT        530     540
CQUAD8       186       1     228     221     215     222     541     531+CONT
+CONT        532     542
CQUAD8       187       1     229     222     216     223     543     533+CONT
+CONT        534     544
CQUAD8       188       1     230     223     217     224     545     535+CONT
+CONT        337     546
CQUAD8       189       1     232     225     219     226     321     536+CONT
+CONT        537     547
CQUAD8       190       1     233     226     220     227     548     538+CONT
+CONT        539     549
CQUAD8       191       1     234     227     221     228     550     540+CONT
+CONT        541     551
CQUAD8       192       1     235     228     222     229     552     542+CONT
+CONT        543     553
CQUAD8       193       1     236     229     223     230     554     544+CONT
+CONT        545     555
CQUAD8       194       1     237     230     224     231     556     546+CONT
+CONT        338     557
CQUAD8       195       1     239     232     226     233     322     547+CONT
+CONT        548     558
CQUAD8       196       1     240     233     227     234     559     549+CONT
+CONT        550     560
CQUAD8       197       1     241     234     228     235     561     551+CONT
+CONT        552     562
CQUAD8       198       1     242     235     229     236     563     553+CONT
+CONT        554     564
CQUAD8       199       1     243     236     230     237     565     555+CONT
+CONT        556     566
CQUAD8       200       1     244     237     231     238     567     557+CONT
+CONT        339     310
CQUAD8       201       1     245     239     233     240     323     558+CONT
+CONT        559     568
CQUAD8       202       1     246     240     234     241     569     560+CONT
+CONT        561     570
CQUAD8       203       1     247     241     235     242     571     562+CONT
+CONT        563     572
CQUAD8       204       1     248     242     236     243     573     564+CONT
+CONT        565     574
CQUAD8       205       1     249     243     237     244     575     566+CONT
+CONT        567     311
CQUAD8       206       1     250     245     240     246     324     568+CONT
+CONT        569     576
CQUAD8       207       1     251     246     241     247     577     570+CONT
+CONT        571     578
CQUAD8       208       1     252     247     242     248     579     572+CONT
+CONT        573     580
CQUAD8       209       1     253     248     243     249     581     574+CONT
+CONT        575     312
CQUAD8       210       1     254     250     246     251     325     576+CONT
+CONT        577     582
CQUAD8       211       1     255     251     247     252     583     578+CONT
+CONT        579     584
CQUAD8       212       1     256     252     248     253     585     580+CONT
+CONT        581     313
CQUAD8       213       1     257     254     251     255     326     582+CONT
+CONT        583     586
CQUAD8       214       1     258     255     252     256     587     584+CONT
+CONT        585     314
CQUAD8       215       1     259     257     255     258     327     586+CONT
+CONT        587     315
$ Property data section
PSHELL         1
PSHELL         2
PSHELL         3
PSHELL         4
ENDDATA
