$ Generated by COMSOL 6.3.0.290
$ May 18 2026, 10:20
BEGIN BULK
$ Grid data section
GRID           1         87.3011 25.0553 0.00000
GRID           2         89.0000 27.5000 0.00000
GRID           3         85.0626 25.1500 0.00000
GRID           4         85.7154 22.5355 0.00000
GRID           5         86.0312 27.2251 0.00000
GRID           6         83.3577 25.2907 0.00000
GRID           7         83.7211 23.1859 0.00000
GRID           8         84.2577 19.9403 0.00000
GRID           9         83.1415 26.4838 0.00000
GRID          10         81.9142 24.0666 0.00000
GRID          11         82.1884 21.0017 0.00000
GRID          12         82.9435 17.2693 0.00000
GRID          13         87.3011-25.0553 0.00000
GRID          14         80.3594 25.4030 0.00000
GRID          15         80.0007 22.3498 0.00000
GRID          16         80.7329 18.5400 0.00000
GRID          17         81.7898 14.5251 0.00000
GRID          18         89.0000-27.5000 0.00000
GRID          19         85.0422-25.1335 0.00000
GRID          20         85.7154-22.5355 0.00000
GRID          21         77.6794 24.0883 0.00000
GRID          22         78.2694 20.1108 0.00000
GRID          23         79.4677 15.8189 0.00000
GRID          24         80.8141 11.7129 0.00000
GRID          25         72.5407 21.0493 0.00000
GRID          26         86.0312-27.2251 0.00000
GRID          27         83.3309-25.2685 0.00000
GRID          28         83.6614-23.1370 0.00000
GRID          29         84.2577-19.9403 0.00000
GRID          30         81.7898-14.5251 0.00000
GRID          31         75.0812 22.6178 0.00000
GRID          32         76.9903 17.2593 0.00000
GRID          33         78.3518 12.9315 0.00000
GRID          34         80.0334 8.84051 0.00000
GRID          35         72.8765 19.0681 0.00000
GRID          36         70.0338 19.4278 0.00000
GRID          37         83.1415-26.4838 0.00000
GRID          38         82.9435-17.2693 0.00000
GRID          39         81.8460-24.0132 0.00000
GRID          40         82.0403-20.8748 0.00000
GRID          41         80.8141-11.7129 0.00000
GRID          42         79.4168-15.6393 0.00000
GRID          43         79.0000 0.00000 0.00000
GRID          44         74.5681 18.5641 0.00000
GRID          45         75.8035 14.2740 0.00000
GRID          46         77.3488 9.90626 0.00000
GRID          47         79.4633 5.91909 0.00000
GRID          48         71.4332 17.4368 0.00000
GRID          49         67.5364 17.7913 0.00000
GRID          50         80.3594-25.4030 0.00000
GRID          51         80.5434-18.3136 0.00000
GRID          52         79.7819-22.1810 0.00000
GRID          53         80.0334-8.84051 0.00000
GRID          54         78.2528-12.9357 0.00000
GRID          55         77.4806-16.5622 0.00000
GRID          56         79.1158-2.96293 0.00000
GRID          57         79.1158 2.96293 0.00000
GRID          58         75.6667 0.00000 0.00000
GRID          59         73.3791 15.7610 0.00000
GRID          60         74.4845 11.1622 0.00000
GRID          61         76.5339 6.71254 0.00000
GRID          62         69.3643 15.2399 0.00000
GRID          63         65.0254 16.1760 0.00000
GRID          64         77.6794-24.0883 0.00000
GRID          65         77.3884-19.4828 0.00000
GRID          66         79.4633-5.91909 0.00000
GRID          67         77.2377-9.91783 0.00000
GRID          68         75.3665-14.7339 0.00000
GRID          69         75.9675-3.36985 0.00000
GRID          70         75.9971 3.38097 0.00000
GRID          71         72.3333 0.00000 0.00000
GRID          72         71.6446 12.8880 0.00000
GRID          73         73.2777 7.66430 0.00000
GRID          74         66.7616 13.0501 0.00000
GRID          75         62.4768 14.6209 0.00000
GRID          76         75.0812-22.6178 0.00000
GRID          77         74.1261-18.0778 0.00000
GRID          78         76.4665-6.69683 0.00000
GRID          79         74.2478-11.1060 0.00000
GRID          80         72.7324-14.6852 0.00000
GRID          81         72.5930-3.80417 0.00000
GRID          82         72.6431 3.82859 0.00000
GRID          83         69.0000 0.00000 0.00000
GRID          84         69.1135 9.10173 0.00000
GRID          85         63.7281 11.3865 0.00000
GRID          86         59.8662 13.1726 0.00000
GRID          87         72.5407-21.0493 0.00000
GRID          88         71.5867-16.7246 0.00000
GRID          89         73.1580-7.60673 0.00000
GRID          90         71.4161-12.5782 0.00000
GRID          91         68.9910-4.08425 0.00000
GRID          92         69.0349 4.11903 0.00000
GRID          93         65.6667 0.00000 0.00000
GRID          94         64.8338 7.78872 0.00000
GRID          95         60.6712 10.1534 0.00000
GRID          96         57.1700 11.8920 0.00000
GRID          97         70.0338-19.4278 0.00000
GRID          98         69.2803-14.9595 0.00000
GRID          99         69.0169-8.99856 0.00000
GRID         100         65.3615-3.86273 0.00000
GRID         101         65.3923 3.88687 0.00000
GRID         102         62.3333 0.00000 0.00000
GRID         103         61.3985 6.91166 0.00000
GRID         104         57.6932 9.16946 0.00000
GRID         105         54.3707 10.8617 0.00000
GRID         106         67.5364-17.7913 0.00000
GRID         107         66.7042-12.9491 0.00000
GRID         108         64.7842-7.74484 0.00000
GRID         109         61.9187-3.48025 0.00000
GRID         110         61.9352 3.49243 0.00000
GRID         111         59.0000 0.00000 0.00000
GRID         112         58.1997 6.23529 0.00000
GRID         113         54.7464 8.40441 0.00000
GRID         114         51.5509 10.2044 0.00000
GRID         115         65.0254-16.1760 0.00000
GRID         116         63.6953-11.3493 0.00000
GRID         117         61.3729-6.89304 0.00000
GRID         118         58.6211-3.14843 0.00000
GRID         119         58.6299 3.15391 0.00000
GRID         120         55.6667 0.00000 0.00000
GRID         121         55.0921 5.71139 0.00000
GRID         122         51.8406 7.86537 0.00000
GRID         123         49.0000 10.0000 0.00000
GRID         124         62.4768-14.6209 0.00000
GRID         125         60.6543-10.1387 0.00000
GRID         126         58.1860-6.22750 0.00000
GRID         127         55.3893-2.88356 0.00000
GRID         128         55.3938 2.88587 0.00000
GRID         129         52.3333 0.00000 0.00000
GRID         130         52.0318 5.31541 0.00000
GRID         131         49.0000 7.50000 0.00000
GRID         132         46.6889 10.0000 0.00000
GRID         133         59.8662-13.1726 0.00000
GRID         134         57.6843-9.16349 0.00000
GRID         135         55.0850-5.70825 0.00000
GRID         136         52.1879-2.67512 0.00000
GRID         137         52.1897 2.67595 0.00000
GRID         138         49.0000 0.00000 0.00000
GRID         139         49.0000 5.00000 0.00000
GRID         140         46.5950 7.33629 0.00000
GRID         141         44.1097 10.0000 0.00000
GRID         142         57.1700-11.8920 0.00000
GRID         143         54.7419-8.40200 0.00000
GRID         144         52.0290-5.31431 0.00000
GRID         145         49.0000-2.50000 0.00000
GRID         146         49.0000 2.50000 0.00000
GRID         147         47.1175-0.32830 0.00000
GRID         148         46.6307 4.64104 0.00000
GRID         149         44.1028 7.20858 0.00000
GRID         150         41.5298 10.0000 0.00000
GRID         151         54.3707-10.8617 0.00000
GRID         152         51.8388-7.86452 0.00000
GRID         153         49.0000-5.00000 0.00000
GRID         154         47.1896-2.58728 0.00000
GRID         155         46.8107 2.01783 0.00000
GRID         156         45.7278-0.66816 0.00000
GRID         157         44.1559 4.30936 0.00000
GRID         158         41.5545 7.15934 0.00000
GRID         159         39.0000 10.0000 0.00000
GRID         160         51.5509-10.2044 0.00000
GRID         161         49.0000-7.50000 0.00000
GRID         162         47.1422-4.98136 0.00000
GRID         163         45.4154-2.46744 0.00000
GRID         164         44.35190.944802 0.00000
GRID         165         41.5709 4.24950 0.00000
GRID         166         39.0000 7.18289 0.00000
GRID         167         36.0000 10.0000 0.00000
GRID         168         49.0000-10.0000 0.00000
GRID         169         47.1169-7.47359 0.00000
GRID         170         45.2533-4.87883 0.00000
GRID         171         43.5557-2.02186 0.00000
GRID         172         41.5245 1.27002 0.00000
GRID         173         39.0000 4.30976 0.00000
GRID         174         36.0953 7.14968 0.00000
GRID         175         33.0000 10.0000 0.00000
GRID         176         47.1851-10.0000 0.00000
GRID         177         45.1665-7.42092 0.00000
GRID         178         43.2766-4.68497 0.00000
GRID         179         41.3372-1.66198 0.00000
GRID         180         39.0000 1.43659 0.00000
GRID         181         36.1649 4.29087 0.00000
GRID         182         33.2177 7.13112 0.00000
GRID         183         30.0000 10.0000 0.00000
GRID         184         45.1417-10.0000 0.00000
GRID         185         43.1499-7.33829 0.00000
GRID         186         41.1745-4.48003 0.00000
GRID         187         39.0000-1.43659 0.00000
GRID         188         36.2008 1.42960 0.00000
GRID         189         33.3630 4.27192 0.00000
GRID         190         30.4327 7.09979 0.00000
GRID         191         27.0000 10.0000 0.00000
GRID         192         43.0777-10.0000 0.00000
GRID         193         41.0856-7.24896 0.00000
GRID         194         39.0000-4.30976 0.00000
GRID         195         36.2029-1.43095 0.00000
GRID         196         33.4285 1.42201 0.00000
GRID         197         30.6358 4.24380 0.00000
GRID         198         28.0000 7.00000 0.00000
GRID         199         24.0000 10.0000 0.00000
GRID         200         41.0173-10.0000 0.00000
GRID         201         39.0000-7.18289 0.00000
GRID         202         36.1699-4.29156 0.00000
GRID         203         33.4315-1.42418 0.00000
GRID         204         30.6978 1.41230 0.00000
GRID         205         28.0000 4.20000 0.00000
GRID         206         24.8889 7.00000 0.00000
GRID         207         21.0000 10.0000 0.00000
GRID         208         39.0000-10.0000 0.00000
GRID         209         36.0972-7.14995 0.00000
GRID         210         33.3703-4.27295 0.00000
GRID         211         30.6999-1.41400 0.00000
GRID         212         28.0000 1.40000 0.00000
GRID         213         24.8889 4.20000 0.00000
GRID         214         21.7778 7.00000 0.00000
GRID         215         18.0000 10.0000 0.00000
GRID         216         36.0000-10.0000 0.00000
GRID         217         33.2204-7.13151 0.00000
GRID         218         30.6410-4.24454 0.00000
GRID         219         28.0000-1.40000 0.00000
GRID         220         24.8889 1.40000 0.00000
GRID         221         21.7778 4.20000 0.00000
GRID         222         18.6667 7.00000 0.00000
GRID         223         15.0000 10.0000 0.00000
GRID         224         33.0000-10.0000 0.00000
GRID         225         30.4347-7.10007 0.00000
GRID         226         28.0000-4.20000 0.00000
GRID         227         24.8889-1.40000 0.00000
GRID         228         21.7778 1.40000 0.00000
GRID         229         18.6667 4.20000 0.00000
GRID         230         15.5556 7.00000 0.00000
GRID         231         12.0000 10.0000 0.00000
GRID         232         30.0000-10.0000 0.00000
GRID         233         28.0000-7.00000 0.00000
GRID         234         24.8889-4.20000 0.00000
GRID         235         21.7778-1.40000 0.00000
GRID         236         18.6667 1.40000 0.00000
GRID         237         15.5556 4.20000 0.00000
GRID         238         12.4444 7.00000 0.00000
GRID         239         9.00000 10.0000 0.00000
GRID         240         27.0000-10.0000 0.00000
GRID         241         24.8889-7.00000 0.00000
GRID         242         21.7778-4.20000 0.00000
GRID         243         18.6667-1.40000 0.00000
GRID         244         15.5556 1.40000 0.00000
GRID         245         12.4444 4.20000 0.00000
GRID         246         9.33333 7.00000 0.00000
GRID         247         6.00000 10.0000 0.00000
GRID         248         24.0000-10.0000 0.00000
GRID         249         21.7778-7.00000 0.00000
GRID         250         18.6667-4.20000 0.00000
GRID         251         15.5556-1.40000 0.00000
GRID         252         12.4444 1.40000 0.00000
GRID         253         9.33333 4.20000 0.00000
GRID         254         6.22222 7.00000 0.00000
GRID         255         3.00000 10.0000 0.00000
GRID         256         21.0000-10.0000 0.00000
GRID         257         18.6667-7.00000 0.00000
GRID         258         15.5556-4.20000 0.00000
GRID         259         12.4444-1.40000 0.00000
GRID         260         9.33333 1.40000 0.00000
GRID         261         6.22222 4.20000 0.00000
GRID         262         3.11111 7.00000 0.00000
GRID         263         0.00000 10.0000 0.00000
GRID         264         18.0000-10.0000 0.00000
GRID         265         15.5556-7.00000 0.00000
GRID         266         12.4444-4.20000 0.00000
GRID         267         9.33333-1.40000 0.00000
GRID         268         6.22222 1.40000 0.00000
GRID         269         3.11111 4.20000 0.00000
GRID         270         0.00000 7.00000 0.00000
GRID         271         15.0000-10.0000 0.00000
GRID         272         12.4444-7.00000 0.00000
GRID         273         9.33333-4.20000 0.00000
GRID         274         6.22222-1.40000 0.00000
GRID         275         3.11111 1.40000 0.00000
GRID         276         0.00000 4.20000 0.00000
GRID         277         12.0000-10.0000 0.00000
GRID         278         9.33333-7.00000 0.00000
GRID         279         6.22222-4.20000 0.00000
GRID         280         3.11111-1.40000 0.00000
GRID         281         0.00000 1.40000 0.00000
GRID         282         9.00000-10.0000 0.00000
GRID         283         6.22222-7.00000 0.00000
GRID         284         3.11111-4.20000 0.00000
GRID         285         0.00000-1.40000 0.00000
GRID         286         6.00000-10.0000 0.00000
GRID         287         3.11111-7.00000 0.00000
GRID         288         0.00000-4.20000 0.00000
GRID         289         3.00000-10.0000 0.00000
GRID         290         0.00000-7.00000 0.00000
GRID         291         0.00000-10.0000 0.00000
GRID         292         87.5098-27.4289 0.00000
GRID         293         84.5733-26.9045 0.00000
GRID         294         81.7367-25.9785 0.00000
GRID         295         79.0078-24.7695 0.00000
GRID         296         76.3715-23.3685 0.00000
GRID         297         73.8053-21.8428 0.00000
GRID         298         71.2846-20.2427 0.00000
GRID         299         68.7854-18.6091 0.00000
GRID         300         66.2841-16.9787 0.00000
GRID         301         63.7573-15.3883 0.00000
GRID         302         61.1808-13.8801 0.00000
GRID         303         58.5301-12.5068 0.00000
GRID         304         55.7840-11.3394 0.00000
GRID         305         52.9727-10.4836 0.00000
GRID         306         50.2793-10.0525 0.00000
GRID         307         87.5098 27.4289 0.00000
GRID         308         84.5733 26.9045 0.00000
GRID         309         81.7367 25.9785 0.00000
GRID         310         79.0078 24.7695 0.00000
GRID         311         76.3715 23.3685 0.00000
GRID         312         73.8053 21.8428 0.00000
GRID         313         71.2846 20.2427 0.00000
GRID         314         68.7854 18.6091 0.00000
GRID         315         66.2841 16.9787 0.00000
GRID         316         63.7573 15.3883 0.00000
GRID         317         61.1808 13.8801 0.00000
GRID         318         58.5301 12.5068 0.00000
GRID         319         55.7840 11.3394 0.00000
GRID         320         52.9727 10.4836 0.00000
GRID         321         50.2793 10.0525 0.00000
GRID         322         88.1372-26.2868 0.00000
GRID         323         86.4932-23.8049 0.00000
GRID         324         84.9697-21.2476 0.00000
GRID         325         83.5816-18.6140 0.00000
GRID         326         82.3455-15.9061 0.00000
GRID         327         81.2786-13.1271 0.00000
GRID         328         80.3984-10.2836 0.00000
GRID         329         79.0278-1.47705 0.00000
GRID         330         79.7212-7.38510 0.00000
GRID         331         79.2612-4.44434 0.00000
GRID         332         88.1372 26.2868 0.00000
GRID         333         86.4932 23.8049 0.00000
GRID         334         84.9697 21.2476 0.00000
GRID         335         83.5816 18.6140 0.00000
GRID         336         82.3455 15.9061 0.00000
GRID         337         81.2786 13.1271 0.00000
GRID         338         80.3984 10.2836 0.00000
GRID         339         79.7212 7.38510 0.00000
GRID         340         79.0278 1.47705 0.00000
GRID         341         79.2612 4.44434 0.00000
GRID         342         0.00000-8.50000 0.00000
GRID         343         37.5000-10.0000 0.00000
GRID         344         34.5000-10.0000 0.00000
GRID         345         31.5000-10.0000 0.00000
GRID         346         28.5000-10.0000 0.00000
GRID         347         25.5000-10.0000 0.00000
GRID         348         22.5000-10.0000 0.00000
GRID         349         19.5000-10.0000 0.00000
GRID         350         16.5000-10.0000 0.00000
GRID         351         13.5000-10.0000 0.00000
GRID         352         10.5000-10.0000 0.00000
GRID         353         7.50000-10.0000 0.00000
GRID         354         4.50000-10.0000 0.00000
GRID         355         1.50000-10.0000 0.00000
GRID         356         0.00000 5.60000 0.00000
GRID         357         0.00000 2.80000 0.00000
GRID         358         0.00000 0.00000 0.00000
GRID         359         0.00000-2.80000 0.00000
GRID         360         0.00000-5.60000 0.00000
GRID         361         26.4444-7.00000 0.00000
GRID         362         23.3333-7.00000 0.00000
GRID         363         20.2222-7.00000 0.00000
GRID         364         17.1111-7.00000 0.00000
GRID         365         14.0000-7.00000 0.00000
GRID         366         10.8889-7.00000 0.00000
GRID         367         7.77778-7.00000 0.00000
GRID         368         4.66667-7.00000 0.00000
GRID         369         1.55556-7.00000 0.00000
GRID         370         0.00000 8.50000 0.00000
GRID         371         26.4444 7.00000 0.00000
GRID         372         23.3333 7.00000 0.00000
GRID         373         20.2222 7.00000 0.00000
GRID         374         17.1111 7.00000 0.00000
GRID         375         14.0000 7.00000 0.00000
GRID         376         10.8889 7.00000 0.00000
GRID         377         7.77778 7.00000 0.00000
GRID         378         4.66667 7.00000 0.00000
GRID         379         1.55556 7.00000 0.00000
GRID         380         37.5000 10.0000 0.00000
GRID         381         34.5000 10.0000 0.00000
GRID         382         31.5000 10.0000 0.00000
GRID         383         28.5000 10.0000 0.00000
GRID         384         25.5000 10.0000 0.00000
GRID         385         22.5000 10.0000 0.00000
GRID         386         19.5000 10.0000 0.00000
GRID         387         16.5000 10.0000 0.00000
GRID         388         13.5000 10.0000 0.00000
GRID         389         10.5000 10.0000 0.00000
GRID         390         7.50000 10.0000 0.00000
GRID         391         4.50000 10.0000 0.00000
GRID         392         1.50000 10.0000 0.00000
GRID         393         28.0000 5.60000 0.00000
GRID         394         28.0000 2.80000 0.00000
GRID         395         28.0000 0.00000 0.00000
GRID         396         28.0000-2.80000 0.00000
GRID         397         28.0000-5.60000 0.00000
GRID         398         39.0000 8.59144 0.00000
GRID         399         39.0000 5.74632 0.00000
GRID         400         39.0000 2.87317 0.00000
GRID         401         39.0000-9.9E-16 0.00000
GRID         402         39.0000-2.87317 0.00000
GRID         403         39.0000-5.74632 0.00000
GRID         404         39.0000-8.59144 0.00000
GRID         405         48.0926-10.0000 0.00000
GRID         406         46.1634-10.0000 0.00000
GRID         407         44.1097-10.0000 0.00000
GRID         408         42.0475-10.0000 0.00000
GRID         409         40.0086-10.0000 0.00000
GRID         410         47.8445 10.0000 0.00000
GRID         411         45.3993 10.0000 0.00000
GRID         412         42.8197 10.0000 0.00000
GRID         413         40.2649 10.0000 0.00000
GRID         414         49.0000-1.25000 0.00000
GRID         415         49.0000-3.75000 0.00000
GRID         416         49.0000-6.25000 0.00000
GRID         417         49.0000-8.75001 0.00000
GRID         418         49.0000 8.75001 0.00000
GRID         419         49.0000 6.25000 0.00000
GRID         420         49.0000 1.25000 0.00000
GRID         421         49.0000 3.75000 0.00000
GRID         422         77.3333 0.00000 0.00000
GRID         423         74.0000 0.00000 0.00000
GRID         424         70.6667 0.00000 0.00000
GRID         425         67.3333 0.00000 0.00000
GRID         426         64.0000 0.00000 0.00000
GRID         427         60.6667 0.00000 0.00000
GRID         428         57.3333 0.00000 0.00000
GRID         429         54.0000 0.00000 0.00000
GRID         430         50.6667 0.00000 0.00000
GRID         431         86.1716-25.0944 0.00000
GRID         432         85.5367-26.1793 0.00000
GRID         433         84.3518-24.1352 0.00000
GRID         434         84.6884-22.8362 0.00000
GRID         435         84.1866-25.2010 0.00000
GRID         436         83.2362-25.8761 0.00000
GRID         437         82.8509-22.0059 0.00000
GRID         438         83.1490-20.4075 0.00000
GRID         439         82.5885-24.6409 0.00000
GRID         440         81.1027-24.7081 0.00000
GRID         441         81.2918-19.5942 0.00000
GRID         442         81.7434-17.7914 0.00000
GRID         443         79.9801-16.9765 0.00000
GRID         444         80.6033-15.0822 0.00000
GRID         445         79.5334-12.3243 0.00000
GRID         446         78.8348-14.2875 0.00000
GRID         447         80.8139-23.0971 0.00000
GRID         448         78.7306-23.1346 0.00000
GRID         449         78.6356-9.37917 0.00000
GRID         450         77.7452-11.4268 0.00000
GRID         451         77.5417-3.16639 0.00000
GRID         452         75.8171-1.68493 0.00000
GRID         453         78.5851-20.8319 0.00000
GRID         454         76.2348-21.0503 0.00000
GRID         455         77.9649-6.30796 0.00000
GRID         456         76.2170-5.03334 0.00000
GRID         457         76.8521-8.30733 0.00000
GRID         458         73.3334-19.5636 0.00000
GRID         459         75.7573-18.7803 0.00000
GRID         460         70.8102-18.0762 0.00000
GRID         461         72.8564-17.4012 0.00000
GRID         462         70.4335-15.8420 0.00000
GRID         463         68.4084-16.3754 0.00000
GRID         464         67.9923-13.9543 0.00000
GRID         465         65.8648-14.5626 0.00000
GRID         466         63.0860-12.9851 0.00000
GRID         467         65.1997-12.1492 0.00000
GRID         468         60.2602-11.6557 0.00000
GRID         469         62.1748-10.7440 0.00000
GRID         470         57.4271-10.5277 0.00000
GRID         471         59.1693-9.65111 0.00000
GRID         472         54.5563-9.63187 0.00000
GRID         473         56.2131-8.78275 0.00000
GRID         474         51.6949-9.03448 0.00000
GRID         475         53.2904-8.13326 0.00000
GRID         476         50.4194-7.68226 0.00000
GRID         477         86.1819 25.1027 0.00000
GRID         478         85.5469 26.1876 0.00000
GRID         479         84.3919 24.1679 0.00000
GRID         480         84.7182 22.8607 0.00000
GRID         481         84.2102 25.2204 0.00000
GRID         482         83.2496 25.8873 0.00000
GRID         483         82.9548 22.0938 0.00000
GRID         484         83.2231 20.4710 0.00000
GRID         485         82.6359 24.6787 0.00000
GRID         486         81.1368 24.7348 0.00000
GRID         487         81.4607 19.7708 0.00000
GRID         488         81.8382 17.9046 0.00000
GRID         489         78.8400 23.2190 0.00000
GRID         490         80.9575 23.2082 0.00000
GRID         491         80.1003 17.1795 0.00000
GRID         492         80.6288 15.1720 0.00000
GRID         493         76.6753 21.3643 0.00000
GRID         494         79.1350 21.2303 0.00000
GRID         495         78.9097 14.3752 0.00000
GRID         496         79.5829 12.3222 0.00000
GRID         497         73.7223 18.8161 0.00000
GRID         498         72.7086 20.0587 0.00000
GRID         499         74.8247 20.5909 0.00000
GRID         500         77.8503 11.4189 0.00000
GRID         501         78.6911 9.37339 0.00000
GRID         502         72.1549 18.2524 0.00000
GRID         503         70.7335 18.4323 0.00000
GRID         504         76.9413 8.30940 0.00000
GRID         505         77.9986 6.31582 0.00000
GRID         506         70.3988 16.3384 0.00000
GRID         507         68.4504 16.5156 0.00000
GRID         508         77.5564 3.17195 0.00000
GRID         509         75.8319 1.69049 0.00000
GRID         510         76.2655 5.04676 0.00000
GRID         511         68.0630 14.1450 0.00000
GRID         512         65.8935 14.6131 0.00000
GRID         513         63.1024 13.0037 0.00000
GRID         514         65.2449 12.2183 0.00000
GRID         515         60.2687 11.6630 0.00000
GRID         516         62.1997 10.7700 0.00000
GRID         517         57.4316 10.5307 0.00000
GRID         518         59.1822 9.66146 0.00000
GRID         519         54.5586 9.63308 0.00000
GRID         520         56.2198 8.78694 0.00000
GRID         521         51.6958 9.03491 0.00000
GRID         522         53.2935 8.13489 0.00000
GRID         523         50.4203 7.68269 0.00000
GRID         524         37.5477 7.16628 0.00000
GRID         525         36.0477 8.57484 0.00000
GRID         526         37.5825 4.30031 0.00000
GRID         527         36.1301 5.72027 0.00000
GRID         528         34.6565 7.14040 0.00000
GRID         529         33.1088 8.56556 0.00000
GRID         530         37.6004 1.43309 0.00000
GRID         531         36.1829 2.86023 0.00000
GRID         532         34.7640 4.28140 0.00000
GRID         533         33.2903 5.70152 0.00000
GRID         534         31.8252 7.11546 0.00000
GRID         535         30.2164 8.54990 0.00000
GRID         536         37.6014-1.43377 0.00000
GRID         537         36.2019-0.00067 0.00000
GRID         538         34.8147 1.42581 0.00000
GRID         539         33.3957 2.84697 0.00000
GRID         540         31.9994 4.25786 0.00000
GRID         541         30.5342 5.67179 0.00000
GRID         542         29.2164 7.04990 0.00000
GRID         543         27.5000 8.50000 0.00000
GRID         544         36.1864-2.86126 0.00000
GRID         545         37.5849-4.30066 0.00000
GRID         546         34.8172-1.42757 0.00000
GRID         547         33.4300-0.00108 0.00000
GRID         548         32.0632 1.41715 0.00000
GRID         549         30.6668 2.82805 0.00000
GRID         550         29.3179 4.22190 0.00000
GRID         551         24.4444 8.50000 0.00000
GRID         552         36.1335-5.72075 0.00000
GRID         553         37.5486-7.16642 0.00000
GRID         554         33.4009-2.84856 0.00000
GRID         555         34.7701-4.28226 0.00000
GRID         556         32.0657-1.41909 0.00000
GRID         557         30.6988-0.00085 0.00000
GRID         558         29.3489 1.40615 0.00000
GRID         559         21.3889 8.50000 0.00000
GRID         560         36.0486-8.57497 0.00000
GRID         561         33.2953-5.70223 0.00000
GRID         562         34.6588-7.14073 0.00000
GRID         563         30.6704-2.82927 0.00000
GRID         564         32.0056-4.25875 0.00000
GRID         565         29.3499-1.40700 0.00000
GRID         566         18.3333 8.50000 0.00000
GRID         567         33.1102-8.56575 0.00000
GRID         568         30.5378-5.67230 0.00000
GRID         569         31.8275-7.11579 0.00000
GRID         570         29.3205-4.22227 0.00000
GRID         571         15.2778 8.50000 0.00000
GRID         572         30.2173-8.55003 0.00000
GRID         573         29.2173-7.05003 0.00000
GRID         574         12.2222 8.50000 0.00000
GRID         575         27.5000-8.50000 0.00000
GRID         576         9.16667 8.50000 0.00000
GRID         577         24.4444-8.50000 0.00000
GRID         578         6.11111 8.50000 0.00000
GRID         579         21.3889-8.50000 0.00000
GRID         580         3.05556 8.50000 0.00000
GRID         581         18.3333-8.50000 0.00000
GRID         582         15.2778-8.50000 0.00000
GRID         583         12.2222-8.50000 0.00000
GRID         584         9.16667-8.50000 0.00000
GRID         585         6.11111-8.50000 0.00000
GRID         586         3.05556-8.50000 0.00000
GRID         587         26.4444 4.20000 0.00000
GRID         588         24.8889 5.60000 0.00000
GRID         589         26.4444 1.40000 0.00000
GRID         590         24.8889 2.80000 0.00000
GRID         591         23.3333 4.20000 0.00000
GRID         592         21.7778 5.60000 0.00000
GRID         593         26.4444-1.40000 0.00000
GRID         594         24.8889 0.00000 0.00000
GRID         595         23.3333 1.40000 0.00000
GRID         596         21.7778 2.80000 0.00000
GRID         597         20.2222 4.20000 0.00000
GRID         598         18.6667 5.60000 0.00000
GRID         599         26.4444-4.20000 0.00000
GRID         600         24.8889-2.80000 0.00000
GRID         601         23.3333-1.40000 0.00000
GRID         602         21.7778 0.00000 0.00000
GRID         603         20.2222 1.40000 0.00000
GRID         604         18.6667 2.80000 0.00000
GRID         605         17.1111 4.20000 0.00000
GRID         606         15.5556 5.60000 0.00000
GRID         607         24.8889-5.60000 0.00000
GRID         608         23.3333-4.20000 0.00000
GRID         609         21.7778-2.80000 0.00000
GRID         610         20.2222-1.40000 0.00000
GRID         611         18.6667 0.00000 0.00000
GRID         612         17.1111 1.40000 0.00000
GRID         613         15.5556 2.80000 0.00000
GRID         614         14.0000 4.20000 0.00000
GRID         615         12.4444 5.60000 0.00000
GRID         616         21.7778-5.60000 0.00000
GRID         617         20.2222-4.20000 0.00000
GRID         618         18.6667-2.80000 0.00000
GRID         619         17.1111-1.40000 0.00000
GRID         620         15.5556 0.00000 0.00000
GRID         621         14.0000 1.40000 0.00000
GRID         622         12.4444 2.80000 0.00000
GRID         623         10.8889 4.20000 0.00000
GRID         624         9.33333 5.60000 0.00000
GRID         625         18.6667-5.60000 0.00000
GRID         626         17.1111-4.20000 0.00000
GRID         627         15.5556-2.80000 0.00000
GRID         628         14.0000-1.40000 0.00000
GRID         629         12.4444 0.00000 0.00000
GRID         630         10.8889 1.40000 0.00000
GRID         631         9.33333 2.80000 0.00000
GRID         632         7.77778 4.20000 0.00000
GRID         633         6.22222 5.60000 0.00000
GRID         634         15.5556-5.60000 0.00000
GRID         635         14.0000-4.20000 0.00000
GRID         636         12.4444-2.80000 0.00000
GRID         637         10.8889-1.40000 0.00000
GRID         638         9.33333 0.00000 0.00000
GRID         639         7.77778 1.40000 0.00000
GRID         640         6.22222 2.80000 0.00000
GRID         641         4.66667 4.20000 0.00000
GRID         642         3.11111 5.60000 0.00000
GRID         643         12.4444-5.60000 0.00000
GRID         644         10.8889-4.20000 0.00000
GRID         645         9.33333-2.80000 0.00000
GRID         646         7.77778-1.40000 0.00000
GRID         647         6.22222 0.00000 0.00000
GRID         648         4.66667 1.40000 0.00000
GRID         649         3.11111 2.80000 0.00000
GRID         650         1.55556 4.20000 0.00000
GRID         651         9.33333-5.60000 0.00000
GRID         652         7.77778-4.20000 0.00000
GRID         653         6.22222-2.80000 0.00000
GRID         654         4.66667-1.40000 0.00000
GRID         655         3.11111 0.00000 0.00000
GRID         656         1.55556 1.40000 0.00000
GRID         657         6.22222-5.60000 0.00000
GRID         658         4.66667-4.20000 0.00000
GRID         659         3.11111-2.80000 0.00000
GRID         660         1.55556-1.40000 0.00000
GRID         661         3.11111-5.60000 0.00000
GRID         662         1.55556-4.20000 0.00000
GRID         663         47.7975 7.41815 0.00000
GRID         664         46.6419 8.66814 0.00000
GRID         665         47.8153 4.82052 0.00000
GRID         666         46.6128 5.98866 0.00000
GRID         667         45.3489 7.27243 0.00000
GRID         668         44.1063 8.60429 0.00000
GRID         669         47.1536-1.45779 0.00000
GRID         670         48.0588-0.16415 0.00000
GRID         671         48.0948-2.54364 0.00000
GRID         672         47.9054 2.25891 0.00000
GRID         673         46.96410.844763 0.00000
GRID         674         46.7207 3.32943 0.00000
GRID         675         45.3933 4.47520 0.00000
GRID         676         44.1294 5.75897 0.00000
GRID         677         42.8287 7.18396 0.00000
GRID         678         41.5421 8.57967 0.00000
GRID         679         47.1659-3.78432 0.00000
GRID         680         48.0711-4.99068 0.00000
GRID         681         45.5716-1.56781 0.00000
GRID         682         46.4227-0.49823 0.00000
GRID         683         46.3025-2.52736 0.00000
GRID         684         45.03980.138317 0.00000
GRID         685         45.5813 1.48131 0.00000
GRID         686         44.2539 2.62708 0.00000
GRID         687         41.5627 5.70442 0.00000
GRID         688         42.8634 4.27943 0.00000
GRID         689         40.2772 7.17112 0.00000
GRID         690         47.1296-6.22748 0.00000
GRID         691         48.0585-7.48680 0.00000
GRID         692         45.3344-3.67313 0.00000
GRID         693         46.1978-4.93010 0.00000
GRID         694         43.9538-0.53853 0.00000
GRID         695         44.4856-2.24465 0.00000
GRID         696         42.9382 1.10741 0.00000
GRID         697         41.5477 2.75976 0.00000
GRID         698         40.2854 4.27963 0.00000
GRID         699         47.1510-8.73679 0.00000
GRID         700         45.2099-6.14988 0.00000
GRID         701         46.1417-7.44726 0.00000
GRID         702         43.4161-3.35342 0.00000
GRID         703         44.2649-4.78190 0.00000
GRID         704         42.4465-1.84192 0.00000
GRID         705         41.4308-0.19598 0.00000
GRID         706         40.2622 1.35330 0.00000
GRID         707         45.1541-8.71046 0.00000
GRID         708         43.2133-6.01163 0.00000
GRID         709         44.1582-7.37961 0.00000
GRID         710         41.2559-3.07101 0.00000
GRID         711         42.2256-4.58250 0.00000
GRID         712         40.1686-1.54928 0.00000
GRID         713         43.1138-8.66914 0.00000
GRID         714         41.1301-5.86450 0.00000
GRID         715         42.1177-7.29362 0.00000
GRID         716         40.0873-4.39490 0.00000
GRID         717         41.0514-8.62448 0.00000
GRID         718         40.0428-7.21592 0.00000
GRID         719         82.7537-23.5751 0.00000
GRID         720         80.9111-21.5279 0.00000
GRID         721         78.9659-18.8982 0.00000
GRID         722         77.4345-18.0225 0.00000
GRID         723         78.4487-16.1007 0.00000
GRID         724         76.4236-15.6480 0.00000
GRID         725         76.8097-13.8348 0.00000
GRID         726         74.7463-16.4058 0.00000
GRID         727         75.7428-10.5119 0.00000
GRID         728         74.8072-12.9199 0.00000
GRID         729         72.4632-1.90208 0.00000
GRID         730         74.2803-3.58701 0.00000
GRID         731         72.1596-15.7049 0.00000
GRID         732         74.0495-14.7095 0.00000
GRID         733         74.8123-7.15178 0.00000
GRID         734         73.7029-9.35638 0.00000
GRID         735         72.8755-5.70545 0.00000
GRID         736         72.0742-13.6317 0.00000
GRID         737         72.8319-11.8421 0.00000
GRID         738         68.9955-2.04212 0.00000
GRID         739         70.7920-3.94421 0.00000
GRID         740         70.3482-13.7689 0.00000
GRID         741         71.0874-8.30264 0.00000
GRID         742         69.0040-6.54140 0.00000
GRID         743         70.2165-10.7884 0.00000
GRID         744         65.5141-1.93136 0.00000
GRID         745         67.1763-3.97349 0.00000
GRID         746         67.8606-10.9738 0.00000
GRID         747         66.9005-8.37170 0.00000
GRID         748         65.0728-5.80378 0.00000
GRID         749         62.1260-1.74012 0.00000
GRID         750         63.6401-3.67149 0.00000
GRID         751         64.2397-9.54709 0.00000
GRID         752         63.0785-7.31894 0.00000
GRID         753         61.6458-5.18664 0.00000
GRID         754         58.8105-1.57421 0.00000
GRID         755         60.2699-3.31434 0.00000
GRID         756         61.0136-8.51589 0.00000
GRID         757         59.7795-6.56027 0.00000
GRID         758         58.4035-4.68796 0.00000
GRID         759         55.5280-1.44178 0.00000
GRID         760         57.0052-3.01600 0.00000
GRID         761         57.9351-7.69550 0.00000
GRID         762         56.6355-5.96788 0.00000
GRID         763         55.2371-4.29591 0.00000
GRID         764         52.2606-1.33756 0.00000
GRID         765         53.7886-2.77934 0.00000
GRID         766         54.9135-7.05513 0.00000
GRID         767         53.5570-5.51128 0.00000
GRID         768         52.1085-3.99472 0.00000
GRID         769         50.5940-2.58756 0.00000
GRID         770         51.9339-6.58942 0.00000
GRID         771         50.5145-5.15716 0.00000
GRID         772         82.8177 23.6262 0.00000
GRID         773         81.0946 21.6757 0.00000
GRID         774         79.5011 19.3254 0.00000
GRID         775         77.6298 18.6851 0.00000
GRID         776         78.2290 16.5391 0.00000
GRID         777         75.7792 17.9117 0.00000
GRID         778         76.3969 15.7667 0.00000
GRID         779         77.0776 13.6027 0.00000
GRID         780         72.4061 16.5989 0.00000
GRID         781         73.9736 17.1625 0.00000
GRID         782         74.5913 15.0175 0.00000
GRID         783         75.1440 12.7181 0.00000
GRID         784         75.9167 10.5342 0.00000
GRID         785         72.5118 14.3245 0.00000
GRID         786         70.5045 14.0640 0.00000
GRID         787         73.0646 12.0251 0.00000
GRID         788         73.8811 9.41324 0.00000
GRID         789         74.9058 7.18842 0.00000
GRID         790         74.3201 3.60478 0.00000
GRID         791         72.4882 1.91429 0.00000
GRID         792         72.9604 5.74644 0.00000
GRID         793         70.3791 10.9949 0.00000
GRID         794         67.9376 11.0759 0.00000
GRID         795         71.1956 8.38301 0.00000
GRID         796         70.8390 3.97381 0.00000
GRID         797         69.0174 2.05952 0.00000
GRID         798         69.0742 6.61038 0.00000
GRID         799         64.2810 9.58761 0.00000
GRID         800         66.9737 8.44523 0.00000
GRID         801         65.5295 1.94343 0.00000
GRID         802         67.2136 4.00295 0.00000
GRID         803         65.1130 5.83780 0.00000
GRID         804         61.0349 8.53255 0.00000
GRID         805         63.1162 7.35019 0.00000
GRID         806         62.1343 1.74621 0.00000
GRID         807         63.6637 3.68965 0.00000
GRID         808         61.6669 5.20204 0.00000
GRID         809         57.9464 7.70238 0.00000
GRID         810         59.7991 6.57347 0.00000
GRID         811         58.8149 1.57695 0.00000
GRID         812         60.2825 3.32317 0.00000
GRID         813         58.4148 4.69460 0.00000
GRID         814         54.9193 7.05790 0.00000
GRID         815         56.6459 5.97334 0.00000
GRID         816         55.5302 1.44294 0.00000
GRID         817         57.0118 3.01989 0.00000
GRID         818         55.2429 4.29863 0.00000
GRID         819         51.9362 6.59039 0.00000
GRID         820         53.5620 5.51340 0.00000
GRID         821         52.2615 1.33798 0.00000
GRID         822         53.7917 2.78091 0.00000
GRID         823         52.1108 3.99568 0.00000
GRID         824         50.5159 5.15771 0.00000
GRID         825         50.5949 2.58798 0.00000
$ Element data section
CQUAD8         1       5       1       2       5       3     332     307+CONT
+CONT        478     477
CQUAD8         2       5       3       7       4       1     479     480+CONT
+CONT        333     477
CQUAD8         3       5       3       5       9       6     478     308+CONT
+CONT        482     481
CQUAD8         4       5       6      10       7       3     485     772+CONT
+CONT        479     481
CQUAD8         5       5       7      11       8       4     483     484+CONT
+CONT        334     480
CQUAD8         6       5       6       9      14      10     482     309+CONT
+CONT        486     485
CQUAD8         7       5      10      15      11       7     490     773+CONT
+CONT        483     772
CQUAD8         8       5      11      16      12       8     487     488+CONT
+CONT        335     484
CQUAD8         9       5      14      21      15      10     310     489+CONT
+CONT        490     486
CQUAD8        10       5      15      22      16      11     494     774+CONT
+CONT        487     773
CQUAD8        11       5      12      16      23      17     488     491+CONT
+CONT        492     336
CQUAD8        12       4      13      19      26      18     431     432+CONT
+CONT        292     322
CQUAD8        13       4      19      13      20      28     431     323+CONT
+CONT        434     433
CQUAD8        14       5      21      31      22      15     311     493+CONT
+CONT        494     489
CQUAD8        15       5      16      22      32      23     774     775+CONT
+CONT        776     491
CQUAD8        16       5      17      23      33      24     492     495+CONT
+CONT        496     337
CQUAD8        17       4      19      27      37      26     435     436+CONT
+CONT        293     432
CQUAD8        18       4      27      19      28      39     435     433+CONT
+CONT        719     439
CQUAD8        19       4      28      20      29      40     434     324+CONT
+CONT        438     437
CQUAD8        20       5      35      44      31      25     497     499+CONT
+CONT        312     498
CQUAD8        21       5      44      32      22      31     777     775+CONT
+CONT        493     499
CQUAD8        22       5      23      32      45      33     776     778+CONT
+CONT        779     495
CQUAD8        23       5      24      33      46      34     496     500+CONT
+CONT        501     338
CQUAD8        24       5      35      25      36      48     498     313+CONT
+CONT        503     502
CQUAD8        25       4      27      39      50      37     439     440+CONT
+CONT        294     436
CQUAD8        26       4      40      29      38      51     438     325+CONT
+CONT        442     441
CQUAD8        27       4      42      51      38      30     443     442+CONT
+CONT        326     444
CQUAD8        28       4      39      28      40      52     719     437+CONT
+CONT        720     447
CQUAD8        29       4      30      41      54      42     327     445+CONT
+CONT        446     444
CQUAD8        30       5      35      48      59      44     502     780+CONT
+CONT        781     497
CQUAD8        31       5      59      45      32      44     782     778+CONT
+CONT        777     781
CQUAD8        32       5      33      45      60      46     779     783+CONT
+CONT        784     500
CQUAD8        33       5      34      46      61      47     501     504+CONT
+CONT        505     339
CQUAD8        34       5      48      36      49      62     503     314+CONT
+CONT        507     506
CQUAD8        35       4      50      39      52      64     440     447+CONT
+CONT        448     295
CQUAD8        36       4      52      40      51      65     720     441+CONT
+CONT        721     453
CQUAD8        37       4      55      65      51      42     722     721+CONT
+CONT        443     723
CQUAD8        38       4      41      53      67      54     328     449+CONT
+CONT        450     445
CQUAD8        39       4      55      42      54      68     723     446+CONT
+CONT        725     724
CQUAD8        40       4      56      43      58      69     329     422+CONT
+CONT        452     451
CQUAD8        41       5      57      70      58      43     508     509+CONT
+CONT        422     340
CQUAD8        42       5      47      61      70      57     505     510+CONT
+CONT        508     341
CQUAD8        43       5      59      48      62      72     780     506+CONT
+CONT        786     785
CQUAD8        44       5      45      59      72      60     782     785+CONT
+CONT        787     783
CQUAD8        45       5      46      60      73      61     784     788+CONT
+CONT        789     504
CQUAD8        46       5      62      49      63      74     507     315+CONT
+CONT        512     511
CQUAD8        47       4      64      52      65      76     448     453+CONT
+CONT        454     296
CQUAD8        48       4      55      68      77      65     724     726+CONT
+CONT        459     722
CQUAD8        49       4      66      56      69      78     331     451+CONT
+CONT        456     455
CQUAD8        50       4      53      66      78      67     330     455+CONT
+CONT        457     449
CQUAD8        51       4      54      67      79      68     450     727+CONT
+CONT        728     725
CQUAD8        52       4      58      71      81      69     423     729+CONT
+CONT        730     452
CQUAD8        53       5      58      70      82      71     509     790+CONT
+CONT        791     423
CQUAD8        54       5      61      73      82      70     789     792+CONT
+CONT        790     510
CQUAD8        55       5      72      62      74      84     786     511+CONT
+CONT        794     793
CQUAD8        56       5      60      72      84      73     787     793+CONT
+CONT        795     788
CQUAD8        57       5      75      85      74      63     513     514+CONT
+CONT        512     316
CQUAD8        58       4      77      87      76      65     458     297+CONT
+CONT        454     459
CQUAD8        59       4      80      88      77      68     731     461+CONT
+CONT        726     732
CQUAD8        60       4      67      78      89      79     457     733+CONT
+CONT        734     727
CQUAD8        61       4      78      69      81      89     456     730+CONT
+CONT        735     733
CQUAD8        62       4      80      68      79      90     732     728+CONT
+CONT        737     736
CQUAD8        63       4      71      83      91      81     424     738+CONT
+CONT        739     729
CQUAD8        64       5      71      82      92      83     791     796+CONT
+CONT        797     424
CQUAD8        65       5      73      84      92      82     795     798+CONT
+CONT        796     792
CQUAD8        66       5      85      94      84      74     799     800+CONT
+CONT        794     514
CQUAD8        67       5      86      95      85      75     515     516+CONT
+CONT        513     317
CQUAD8        68       4      97      87      77      88     298     458+CONT
+CONT        461     460
CQUAD8        69       4      80      90      98      88     736     740+CONT
+CONT        462     731
CQUAD8        70       4      89      81      91      99     735     739+CONT
+CONT        742     741
CQUAD8        71       4      79      89      99      90     734     741+CONT
+CONT        743     737
CQUAD8        72       4      93     100      91      83     744     745+CONT
+CONT        738     425
CQUAD8        73       5      93      83      92     101     425     797+CONT
+CONT        802     801
CQUAD8        74       5      94     101      92      84     803     802+CONT
+CONT        798     800
CQUAD8        75       5      95     103      94      85     804     805+CONT
+CONT        799     516
CQUAD8        76       5      96     104      95      86     517     518+CONT
+CONT        515     318
CQUAD8        77       4      88      98     106      97     462     463+CONT
+CONT        299     460
CQUAD8        78       4      90      99     107      98     743     746+CONT
+CONT        464     740
CQUAD8        79       4     108      99      91     100     747     742+CONT
+CONT        745     748
CQUAD8        80       4     102     109     100      93     749     750+CONT
+CONT        744     426
CQUAD8        81       5     102      93     101     110     426     801+CONT
+CONT        807     806
CQUAD8        82       5     103     110     101      94     808     807+CONT
+CONT        803     805
CQUAD8        83       5     104     112     103      95     809     810+CONT
+CONT        804     518
CQUAD8        84       5     105     113     104      96     519     520+CONT
+CONT        517     319
CQUAD8        85       4      98     107     115     106     464     465+CONT
+CONT        300     463
CQUAD8        86       4     116     107      99     108     467     746+CONT
+CONT        747     751
CQUAD8        87       4     117     108     100     109     752     748+CONT
+CONT        750     753
CQUAD8        88       4     111     118     109     102     754     755+CONT
+CONT        749     427
CQUAD8        89       5     111     102     110     119     427     806+CONT
+CONT        812     811
CQUAD8        90       5     112     119     110     103     813     812+CONT
+CONT        808     810
CQUAD8        91       5     113     121     112     104     814     815+CONT
+CONT        809     520
CQUAD8        92       5     114     122     113     105     521     522+CONT
+CONT        519     320
CQUAD8        93       4     124     115     107     116     301     465+CONT
+CONT        467     466
CQUAD8        94       4     125     116     108     117     469     751+CONT
+CONT        752     756
CQUAD8        95       4     126     117     109     118     757     753+CONT
+CONT        755     758
CQUAD8        96       4     120     127     118     111     759     760+CONT
+CONT        754     428
CQUAD8        97       5     120     111     119     128     428     811+CONT
+CONT        817     816
CQUAD8        98       5     121     128     119     112     818     817+CONT
+CONT        813     815
CQUAD8        99       5     122     130     121     113     819     820+CONT
+CONT        814     522
CQUAD8       100       5     123     131     122     114     418     523+CONT
+CONT        521     321
CQUAD8       101       4     133     124     116     125     302     466+CONT
+CONT        469     468
CQUAD8       102       4     134     125     117     126     471     756+CONT
+CONT        757     761
CQUAD8       103       4     135     126     118     127     762     758+CONT
+CONT        760     763
CQUAD8       104       4     129     136     127     120     764     765+CONT
+CONT        759     429
CQUAD8       105       5     129     120     128     137     429     816+CONT
+CONT        822     821
CQUAD8       106       5     130     137     128     121     823     822+CONT
+CONT        818     820
CQUAD8       107       5     131     139     130     122     419     824+CONT
+CONT        819     523
CQUAD8       108       3     131     123     132     140     418     410+CONT
+CONT        664     663
CQUAD8       109       4     142     133     125     134     303     468+CONT
+CONT        471     470
CQUAD8       110       4     143     134     126     135     473     761+CONT
+CONT        762     766
CQUAD8       111       4     144     135     127     136     767     763+CONT
+CONT        765     768
CQUAD8       112       4     145     136     129     138     769     764+CONT
+CONT        430     414
CQUAD8       113       5     146     138     129     137     420     430+CONT
+CONT        821     825
CQUAD8       114       5     139     146     137     130     421     825+CONT
+CONT        823     824
CQUAD8       115       3     139     131     140     148     419     663+CONT
+CONT        666     665
CQUAD8       116       3     140     132     141     149     664     411+CONT
+CONT        668     667
CQUAD8       117       4     151     142     134     143     304     470+CONT
+CONT        473     472
CQUAD8       118       4     152     143     135     144     475     766+CONT
+CONT        767     770
CQUAD8       119       4     153     144     136     145     771     768+CONT
+CONT        769     415
CQUAD8       120       3     147     154     145     138     669     671+CONT
+CONT        414     670
CQUAD8       121       3     138     146     155     147     420     672+CONT
+CONT        673     670
CQUAD8       122       3     146     139     148     155     421     665+CONT
+CONT        674     672
CQUAD8       123       3     148     140     149     157     666     667+CONT
+CONT        676     675
CQUAD8       124       3     149     141     150     158     668     412+CONT
+CONT        678     677
CQUAD8       125       4     160     151     143     152     305     472+CONT
+CONT        475     474
CQUAD8       126       4     161     152     144     153     476     770+CONT
+CONT        771     416
CQUAD8       127       3     154     162     153     145     679     680+CONT
+CONT        415     671
CQUAD8       128       3     156     163     154     147     681     683+CONT
+CONT        669     682
CQUAD8       129       3     156     147     155     164     682     673+CONT
+CONT        685     684
CQUAD8       130       3     155     148     157     164     674     675+CONT
+CONT        686     685
CQUAD8       131       3     158     165     157     149     687     688+CONT
+CONT        676     677
CQUAD8       132       3     166     158     150     159     689     678+CONT
+CONT        413     398
CQUAD8       133       4     168     160     152     161     306     474+CONT
+CONT        476     417
CQUAD8       134       3     153     162     169     161     680     690+CONT
+CONT        691     416
CQUAD8       135       3     154     163     170     162     683     692+CONT
+CONT        693     679
CQUAD8       136       3     156     164     171     163     684     694+CONT
+CONT        695     681
CQUAD8       137       3     172     164     157     165     696     686+CONT
+CONT        688     697
CQUAD8       138       3     173     165     158     166     698     687+CONT
+CONT        689     399
CQUAD8       139       1     174     166     159     167     524     398+CONT
+CONT        380     525
CQUAD8       140       3     176     168     161     169     405     417+CONT
+CONT        691     699
CQUAD8       141       3     162     170     177     169     693     700+CONT
+CONT        701     690
CQUAD8       142       3     163     171     178     170     695     702+CONT
+CONT        703     692
CQUAD8       143       3     171     164     172     179     694     696+CONT
+CONT        705     704
CQUAD8       144       3     180     172     165     173     706     697+CONT
+CONT        698     400
CQUAD8       145       1     181     173     166     174     526     399+CONT
+CONT        524     527
CQUAD8       146       1     182     174     167     175     528     525+CONT
+CONT        381     529
CQUAD8       147       3     169     177     184     176     701     707+CONT
+CONT        406     699
CQUAD8       148       3     170     178     185     177     703     708+CONT
+CONT        709     700
CQUAD8       149       3     171     179     186     178     704     710+CONT
+CONT        711     702
CQUAD8       150       3     187     179     172     180     712     705+CONT
+CONT        706     401
CQUAD8       151       1     188     180     173     181     530     400+CONT
+CONT        526     531
CQUAD8       152       1     189     181     174     182     532     527+CONT
+CONT        528     533
CQUAD8       153       1     190     182     175     183     534     529+CONT
+CONT        382     535
CQUAD8       154       3     177     185     192     184     709     713+CONT
+CONT        407     707
CQUAD8       155       3     178     186     193     185     711     714+CONT
+CONT        715     708
CQUAD8       156       3     194     186     179     187     716     710+CONT
+CONT        712     402
CQUAD8       157       1     195     187     180     188     536     401+CONT
+CONT        530     537
CQUAD8       158       1     196     188     181     189     538     531+CONT
+CONT        532     539
CQUAD8       159       1     197     189     182     190     540     533+CONT
+CONT        534     541
CQUAD8       160       1     198     190     183     191     542     535+CONT
+CONT        383     543
CQUAD8       161       3     192     185     193     200     713     715+CONT
+CONT        717     408
CQUAD8       162       3     186     194     201     193     716     403+CONT
+CONT        718     714
CQUAD8       163       1     195     202     194     187     544     545+CONT
+CONT        402     536
CQUAD8       164       1     203     195     188     196     546     537+CONT
+CONT        538     547
CQUAD8       165       1     204     196     189     197     548     539+CONT
+CONT        540     549
CQUAD8       166       1     198     205     197     190     393     550+CONT
+CONT        541     542
CQUAD8       167       1     191     199     206     198     384     551+CONT
+CONT        371     543
CQUAD8       168       3     200     193     201     208     717     718+CONT
+CONT        404     409
CQUAD8       169       1     202     209     201     194     552     553+CONT
+CONT        403     545
CQUAD8       170       1     203     210     202     195     554     555+CONT
+CONT        544     546
CQUAD8       171       1     211     203     196     204     556     547+CONT
+CONT        548     557
CQUAD8       172       1     205     212     204     197     394     558+CONT
+CONT        549     550
CQUAD8       173       2     213     205     198     206     587     393+CONT
+CONT        371     588
CQUAD8       174       1     199     207     214     206     385     559+CONT
+CONT        372     551
CQUAD8       175       1     209     216     208     201     560     343+CONT
+CONT        404     553
CQUAD8       176       1     210     217     209     202     561     562+CONT
+CONT        552     555
CQUAD8       177       1     211     218     210     203     563     564+CONT
+CONT        554     556
CQUAD8       178       1     219     211     204     212     565     557+CONT
+CONT        558     395
CQUAD8       179       2     220     212     205     213     589     394+CONT
+CONT        587     590
CQUAD8       180       2     221     213     206     214     591     588+CONT
+CONT        372     592
CQUAD8       181       1     207     215     222     214     386     566+CONT
+CONT        373     559
CQUAD8       182       1     217     224     216     209     567     344+CONT
+CONT        560     562
CQUAD8       183       1     218     225     217     210     568     569+CONT
+CONT        561     564
CQUAD8       184       1     226     218     211     219     570     563+CONT
+CONT        565     396
CQUAD8       185       2     227     219     212     220     593     395+CONT
+CONT        589     594
CQUAD8       186       2     228     220     213     221     595     590+CONT
+CONT        591     596
CQUAD8       187       2     229     221     214     222     597     592+CONT
+CONT        373     598
CQUAD8       188       1     215     223     230     222     387     571+CONT
+CONT        374     566
CQUAD8       189       1     225     232     224     217     572     345+CONT
+CONT        567     569
CQUAD8       190       1     233     225     218     226     573     568+CONT
+CONT        570     397
CQUAD8       191       2     234     226     219     227     599     396+CONT
+CONT        593     600
CQUAD8       192       2     235     227     220     228     601     594+CONT
+CONT        595     602
CQUAD8       193       2     236     228     221     229     603     596+CONT
+CONT        597     604
CQUAD8       194       2     237     229     222     230     605     598+CONT
+CONT        374     606
CQUAD8       195       1     223     231     238     230     388     574+CONT
+CONT        375     571
CQUAD8       196       1     233     240     232     225     575     346+CONT
+CONT        572     573
CQUAD8       197       2     241     233     226     234     361     397+CONT
+CONT        599     607
CQUAD8       198       2     242     234     227     235     608     600+CONT
+CONT        601     609
CQUAD8       199       2     243     235     228     236     610     602+CONT
+CONT        603     611
CQUAD8       200       2     244     236     229     237     612     604+CONT
+CONT        605     613
CQUAD8       201       2     245     237     230     238     614     606+CONT
+CONT        375     615
CQUAD8       202       1     231     239     246     238     389     576+CONT
+CONT        376     574
CQUAD8       203       1     240     233     241     248     575     361+CONT
+CONT        577     347
CQUAD8       204       2     249     241     234     242     362     607+CONT
+CONT        608     616
CQUAD8       205       2     250     242     235     243     617     609+CONT
+CONT        610     618
CQUAD8       206       2     251     243     236     244     619     611+CONT
+CONT        612     620
CQUAD8       207       2     252     244     237     245     621     613+CONT
+CONT        614     622
CQUAD8       208       2     253     245     238     246     623     615+CONT
+CONT        376     624
CQUAD8       209       1     239     247     254     246     390     578+CONT
+CONT        377     576
CQUAD8       210       1     248     241     249     256     577     362+CONT
+CONT        579     348
CQUAD8       211       2     257     249     242     250     363     616+CONT
+CONT        617     625
CQUAD8       212       2     258     250     243     251     626     618+CONT
+CONT        619     627
CQUAD8       213       2     259     251     244     252     628     620+CONT
+CONT        621     629
CQUAD8       214       2     260     252     245     253     630     622+CONT
+CONT        623     631
CQUAD8       215       2     261     253     246     254     632     624+CONT
+CONT        377     633
CQUAD8       216       1     247     255     262     254     391     580+CONT
+CONT        378     578
CQUAD8       217       1     256     249     257     264     579     363+CONT
+CONT        581     349
CQUAD8       218       2     265     257     250     258     364     625+CONT
+CONT        626     634
CQUAD8       219       2     266     258     251     259     635     627+CONT
+CONT        628     636
CQUAD8       220       2     267     259     252     260     637     629+CONT
+CONT        630     638
CQUAD8       221       2     268     260     253     261     639     631+CONT
+CONT        632     640
CQUAD8       222       2     269     261     254     262     641     633+CONT
+CONT        378     642
CQUAD8       223       1     255     263     270     262     392     370+CONT
+CONT        379     580
CQUAD8       224       1     264     257     265     271     581     364+CONT
+CONT        582     350
CQUAD8       225       2     272     265     258     266     365     634+CONT
+CONT        635     643
CQUAD8       226       2     273     266     259     267     644     636+CONT
+CONT        637     645
CQUAD8       227       2     274     267     260     268     646     638+CONT
+CONT        639     647
CQUAD8       228       2     275     268     261     269     648     640+CONT
+CONT        641     649
CQUAD8       229       2     276     269     262     270     650     642+CONT
+CONT        379     356
CQUAD8       230       1     271     265     272     277     582     365+CONT
+CONT        583     351
CQUAD8       231       2     278     272     266     273     366     643+CONT
+CONT        644     651
CQUAD8       232       2     279     273     267     274     652     645+CONT
+CONT        646     653
CQUAD8       233       2     280     274     268     275     654     647+CONT
+CONT        648     655
CQUAD8       234       2     281     275     269     276     656     649+CONT
+CONT        650     357
CQUAD8       235       1     277     272     278     282     583     366+CONT
+CONT        584     352
CQUAD8       236       2     283     278     273     279     367     651+CONT
+CONT        652     657
CQUAD8       237       2     284     279     274     280     658     653+CONT
+CONT        654     659
CQUAD8       238       2     285     280     275     281     660     655+CONT
+CONT        656     358
CQUAD8       239       1     282     278     283     286     584     367+CONT
+CONT        585     353
CQUAD8       240       2     287     283     279     284     368     657+CONT
+CONT        658     661
CQUAD8       241       2     288     284     280     285     662     659+CONT
+CONT        660     359
CQUAD8       242       1     286     283     287     289     585     368+CONT
+CONT        586     354
CQUAD8       243       2     290     287     284     288     369     661+CONT
+CONT        662     360
CQUAD8       244       1     289     287     290     291     586     369+CONT
+CONT        342     355
$ Property data section
PSHELL         1
PSHELL         2
PSHELL         3
PSHELL         4
PSHELL         5
ENDDATA
